 <svg width="100" height="58" viewBox="0 0 100 58" fill="none" xmlns="http://www.w3.org/2000/svg">
    <path d="M91.8229 3.06511C89.4859 1.54941 78.8518 -0.356988 75.3796 0.666563C71.9014 1.68951 65.4702 11.7662 60.0898 13.3495C54.7154 14.9329 44.8784 9.32899 37.4328 11.8356C29.9871 14.3423 24.3651 21.9776 20.603 23.0856C16.8349 24.1937 -0.302774 22.6303 0.00519758 30.0935C0.00519758 30.0935 5.85664 56.3828 7.76485 56.4516C9.67307 56.5187 15.9895 48.0488 20.0958 48.099C24.2021 48.1497 26.1465 52.6129 34.9207 50.3441C43.6948 48.076 45.6513 38.6877 50.5426 38.1919C55.434 37.6968 60.2468 42.2765 70.2589 39.9498C80.277 37.6231 77.5173 29.3079 83.1876 28.268C88.864 27.2269 94.6067 32.8513 98.6526 31.6219C102.699 30.393 94.1538 4.58081 91.8229 3.06511Z" fill="#F5866F" />
    <path d="M98.7855 31.8091C99.7275 31.5217 99.9872 29.8955 99.8 27.5519C94.8302 24.4667 87.7831 20.7547 82.8133 20.8815C74.3592 21.0983 74.3592 34.5543 69.8302 35.0736C65.3012 35.5935 57.149 29.4214 49.9932 30.7687C42.8434 32.1165 43.5621 41.4987 39.335 42.7065C35.108 43.9142 26.6538 39.3852 17.8978 39.6497C12.4328 39.8152 7.44489 44.3653 4.46179 47.7656C5.81445 52.6274 7.155 56.6111 7.89775 56.6376C9.80596 56.7053 16.1224 48.2354 20.2287 48.285C24.335 48.3357 26.2794 52.8001 35.0536 50.5307C43.8277 48.2626 45.7842 38.8743 50.6755 38.3792C55.5668 37.884 60.3736 42.4637 70.3918 40.1364C80.4099 37.8097 77.6442 29.4951 83.3205 28.4546C88.9908 27.4142 94.7396 33.038 98.7855 31.8091Z" fill="#F27561" />
    <path d="M32.1671 35.8924C32.1671 35.8924 32.2154 34.7837 30.12 34.8296C28.0185 34.8749 27.94 35.9842 27.94 35.9842C27.94 35.9842 27.475 37.5047 30.3917 37.4407C33.3083 37.3773 32.1671 35.8924 32.1671 35.8924Z" fill="#F27561" />
    <path d="M31.6296 38.9239C31.6296 38.9239 31.1586 40.4438 34.0753 40.3804C36.998 40.3176 35.8567 38.832 35.8567 38.832C35.8567 38.832 35.905 37.7239 33.8035 37.7692C31.7081 37.8145 31.6296 38.9239 31.6296 38.9239Z" fill="#F27561" />
    <path d="M33.7975 35.8568C33.7975 35.8568 33.3265 37.3773 36.2432 37.3133C39.1598 37.2499 38.0245 35.765 38.0245 35.765C38.0245 35.765 38.0728 34.6569 35.9714 34.7022C33.876 34.7481 33.7975 35.8568 33.7975 35.8568Z" fill="#F27561" />
    <path d="M77.3423 35.3707C77.3423 35.3707 76.2432 37.0893 70.3918 40.1364C64.5403 43.1835 55.2227 37.6449 49.8604 38.3284C44.5041 39.012 42.3905 49.1183 33.8398 51.1207C25.2891 53.1237 25.1744 48.6654 20.2287 48.285C15.2831 47.9045 8.26611 57.2705 8.26611 57.2705C10.2287 58.7801 14.6067 51.6847 17.0222 50.0845C19.4376 48.4836 22.6079 50.1751 23.9666 51.1207C25.3253 52.067 27.2879 53.1944 33.7673 52.4395C40.2468 51.6847 45.2589 42.0229 48.8821 40.3822C52.5053 38.7415 55.8265 39.9093 58.5439 41.1171C61.2613 42.3248 68.5077 43.0796 73.6587 39.4752C78.8097 35.8713 77.3423 35.3707 77.3423 35.3707Z" fill="#ED6554" />
    <path d="M73.6587 6.39484C69.4498 6.54581 58.544 19.8308 54.6189 20.8785C50.6937 21.9268 42.8435 15.3019 36.0078 16.3586C32.4268 16.9124 30.2046 20.076 28.2541 23.1159C26.835 22.637 24.5766 22.1159 24.3713 23.5549C24.2143 24.6424 25.422 25.4311 26.6961 25.5211C25.5005 27.2795 24.2928 28.6877 22.7952 29.0398C18.2964 30.0966 18.2299 27.0772 12.9461 27.5301C7.66229 27.983 6.30359 35.3707 6.30359 35.3707C8.87002 37.7771 10.5307 32.2101 11.3097 31.9081C11.8229 31.7089 13.1092 33.1491 16.2734 33.5018C16.5451 35.3248 19.8845 36.5205 21.6539 34.8284C22.3845 34.1298 22.1913 33.5603 21.5875 33.1092C21.98 33.0223 22.3725 32.9299 22.7952 32.8139C30.9776 30.5494 31.8169 21.7934 36.0078 20.8767C40.1925 19.9595 44.0512 26.6243 54.3169 24.5108C64.5826 22.3973 63.5923 13.7058 74.3954 12.2825C85.1925 10.8592 88.4353 12.2825 88.4353 9.86706C88.4353 7.4516 77.8677 6.24387 73.6587 6.39484Z" fill="#F2B6AD" />
    <path d="M82.3543 17.1249C79.9872 15.9317 78.719 25.6382 76.3579 26.4849C75.4038 26.826 73.8639 26.2524 71.9617 25.5259C73.411 24.445 74.3954 22.887 73.6586 21.8441C72.5294 20.2584 69.7516 22.5778 68.1091 24.1962C66.1526 23.6533 64.0209 23.3454 61.8651 23.7675C55.6755 24.9752 54.4678 32.3725 51.5994 32.9643C49.8543 33.3242 47.2757 31.8623 44.5765 30.8254C44.498 29.3182 44.1839 26.4528 42.9037 26.9764C41.9859 27.352 41.4666 28.7934 41.7383 29.9939C40.9352 29.855 40.132 29.82 39.3712 29.9571C35.1381 30.7119 35.289 39.7699 30.4581 40.8267C25.6272 41.8834 20.3434 38.8641 20.3434 38.8641C17.626 42.3363 27.0583 45.9607 31.6658 43.8659C36.2794 41.7711 37.1007 35.0899 40.2347 33.1274C43.3627 31.1648 45.2589 36.7506 51.7685 34.7602C58.2842 32.7699 58.8458 29.2022 62.62 27.7457C66.3941 26.2886 74.0572 32.0658 77.8857 30.41C81.7082 28.7536 84.7275 18.3176 82.3543 17.1249Z" fill="#F2B6AD" />
  </svg>