  <svg width="188" height="60" aria-label="bacon" viewBox="0 0 188 60" fill="none" xmlns="http://www.w3.org/2000/svg">
    <path d="M72.2756 3.88146C70.4435 2.69118 62.0964 1.19515 59.368 1.99815C56.6399 2.80115 51.5921 10.7112 47.369 11.9541C43.1459 13.197 35.4278 8.79851 29.5831 10.7657C23.7384 12.7334 19.3262 18.7269 16.3702 19.5968C13.4147 20.4666 -0.0414602 19.2394 0.20124 25.0978C0.20124 25.0978 4.79358 45.7349 6.2915 45.7885C7.78941 45.8411 12.7501 39.1924 15.9734 39.2318C19.1973 39.2716 20.7227 42.7751 27.6107 40.9947C34.4988 39.2143 36.0351 31.8441 39.8737 31.4554C43.7119 31.0662 47.4884 34.6612 55.3511 32.8353C63.2137 31.0084 61.0455 24.4816 65.499 23.6648C69.9529 22.8476 74.4642 27.2627 77.6392 26.298C80.8142 25.3334 74.1087 5.07078 72.2756 3.88146Z" fill="#F5866F" />
    <path d="M77.7429 26.4446C78.4838 26.2194 78.6867 24.9424 78.5388 23.1027C74.6357 20.6809 69.1034 17.7676 65.205 17.8671C58.5687 18.0368 58.5687 28.5995 55.0135 29.0076C51.4583 29.4153 45.059 24.5703 39.4427 25.6283C33.8265 26.6858 34.3934 34.0508 31.0753 34.9988C27.7566 35.9468 21.1203 32.3917 14.247 32.5997C9.95893 32.7292 6.04065 36.3009 3.69897 38.9702C4.76411 42.7865 5.81312 45.9142 6.39475 45.9345C7.89314 45.9876 12.8533 39.339 16.0772 39.3778C19.3005 39.4176 20.8264 42.9221 27.7144 41.1407C34.6025 39.3603 36.1388 31.9906 39.9774 31.6019C43.8161 31.2132 47.5922 34.8083 55.4543 32.9814C63.317 31.1549 61.1493 24.6281 65.6027 23.8118C70.0566 22.9946 74.5679 27.4092 77.7429 26.4446Z" fill="#F27561" />
    <path d="M25.4492 29.6499C25.4492 29.6499 25.4862 28.7795 23.8394 28.8156C22.1922 28.8511 22.1315 29.7219 22.1315 29.7219C22.1315 29.7219 21.7627 30.9155 24.0532 30.8652C 26.3437 30.8155 25.4492 29.6499 25.4492 29.6499Z" fill="#F27561" />
    <path d="M25.0269 32.0295C25.0269 32.0295 24.6572 33.2226 26.9481 33.1733C29.2391 33.1235 28.3441 31.9574 28.3441 31.9574C28.3441 31.9574 28.3816 31.0876 26.7343 31.1232C25.0871 31.1592 25.0269 32.0295 25.0269 32.0295Z" fill="#F27561" />
    <path d="M26.7275 29.6219C26.7275 29.6219 26.3583 30.8155 28.6487 30.7653C30.9397 30.7155 30.0452 29.5499 30.0452 29.5499C30.0452 29.5499 30.0827 28.68 28.435 28.7156C26.7877 28.7516 26.7275 29.6219 26.7275 29.6219Z" fill="#F27561" />
    <path d="M60.9123 29.2408C60.9123 29.2408 60.0463 30.5894 55.4544 32.9813C50.863 35.3733 43.5441 31.0255 39.339 31.5621C35.1339 32.0987 33.4711 40.032 26.7603 41.6043C20.0496 43.1762 19.9614 39.6764 16.0772 39.3778C12.1931 39.0796 6.68872 46.4313 6.68872 46.4313C8.2293 47.6163 11.666 42.0466 13.5621 40.7904C15.4582 39.5342 17.9468 40.8615 19.0133 41.6043C20.0799 42.3466 21.6205 43.2316 26.7058 42.6391C31.7916 42.0465 35.7227 34.4622 38.5668 33.1747C41.411 31.8868 44.0181 32.8031 46.1512 33.7511C48.2843 34.6992 53.9726 35.2917 58.017 32.4627C62.0613 29.6333 60.9123 29.2408 60.9123 29.2408Z" fill="#ED6554" />
    <path d="M58.017 6.49479C54.714 6.6133 46.1513 17.0418 43.0701 17.8647C39.9889 18.6872 33.8266 13.4866 28.4616 14.3162C25.6507 14.7509 23.9077 17.2347 22.3775 19.6205C21.2626 19.2446 19.4907 18.8355 19.3296 19.9651C19.2077 20.8188 20.1525 21.4384 21.1527 21.5086C20.2131 22.8889 19.2656 23.9943 18.0905 24.2707C14.5604 25.1002 14.5102 22.7301 10.3625 23.0856C6.21475 23.4411 5.14819 29.2408 5.14819 29.2408C7.16279 31.1293 8.46636 26.7593 9.07501 26.5223C9.47698 26.3659 10.4881 27.4964 12.9729 27.7732C13.1872 29.2048 15.8066 30.1429 17.1965 28.8147C17.7705 28.2662 17.6183 27.8197 17.1424 27.4656C17.4496 27.3969 17.7601 27.3248 18.0905 27.2333C24.5149 25.4557 25.1757 18.5824 28.4616 17.8628C31.7476 17.1428 34.7747 22.3746 42.8331 20.7155C50.8915 19.0564 50.1179 12.2343 58.5944 11.1165C67.0714 9.99925 69.6154 11.1165 69.6154 9.22043C69.6154 7.32433 61.32 6.37628 58.017 6.49479Z" fill="#F2B6AD" />
    <path d="M64.8467 14.9177C62.9881 13.981 61.9912 21.601 60.1349 22.2651C59.386 22.5329 58.1796 22.0826 56.6874 21.5123C57.8255 20.6638 58.5972 19.4408 58.017 18.6222C57.1344 17.3774 54.951 19.1981 53.664 20.4685C52.1263 20.0424 50.4549 19.8011 48.7584 20.132C43.8996 21.08 42.9516 26.8868 40.7 27.3514C39.3333 27.6339 37.3102 26.4863 35.1894 25.6724C35.1288 24.4892 34.8808 22.24 33.8759 22.6509C33.1554 22.9458 32.7468 24.0773 32.9639 25.0196C32.3296 24.9106 31.7035 24.8831 31.101 24.9907C27.7828 25.5832 27.9013 32.6936 24.1091 33.5231C20.3169 34.3527 16.1692 31.9826 16.1692 31.9826C14.0361 34.7082 21.437 37.5533 25.0572 35.9089C28.6773 34.2645 29.3234 29.0199 31.7798 27.4793C34.2362 25.9388 35.7227 30.3235 40.8374 28.7611C45.9517 27.1987 46.3882 24.3982 49.3509 23.2548C52.3135 22.1115 58.3317 26.646 61.3352 25.3462C64.3391 24.0465 66.7059 15.8539 64.8467 14.9177Z" fill="#F2B6AD" />
    <path d="M123.244 0.65861C125.325 -0.0059714 133.771 0.752936 136.191 2.24753C138.61 3.74213 141.393 12.7036 145.138 15.0168C148.883 17.3296 157.488 15.123 162.607 18.563C167.725 22.0034 170.4 28.9484 173.022 30.5676C175.643 32.1864 188.946 34.5532 187.167 40.1401C187.167 40.1401 177.292 58.8337 175.833 58.4905C174.374 58.1459 171.343 50.424 168.224 49.6111C165.104 48.7991 162.708 51.7764 156.534 48.2411C150.36 44.7068 150.822 37.1921 147.223 35.8042C143.622 34.4167 139.031 36.8883 131.93 33.052C124.828 29.2152 128.641 23.4919 124.56 21.5289C120.48 19.566 114.964 22.6339 112.156 20.8658C109.348 19.0972 121.162 1.32224 123.244 0.65861Z" fill="#F5866F" />
    <path d="M112.017 20.9795C111.362 20.5666 111.504 19.282 112.131 17.5466C116.535 16.2402 122.64 14.8892 126.374 16.0136C132.73 17.9287 129.944 28.1174 133.265 29.4484C136.587 30.78 144.038 27.7955 149.176 30.2974C154.314 32.7998 151.824 39.7537 154.774 41.5441C157.725 43.334 165.064 41.6555 171.639 43.6696C175.741 44.9263 178.578 49.4053 180.132 52.5974C178.098 55.9975 176.261 58.7374 175.694 58.6042C174.236 58.2596 171.205 50.5378 168.085 49.7253C164.965 48.9133 162.569 51.8906 156.396 48.3549C150.221 44.8205 150.684 37.3063 147.084 35.9188C143.484 34.5309 138.893 37.002 131.791 33.1657C124.689 29.329 128.503 23.6056 124.422 21.6427C120.342 19.6802 114.826 22.7476 112.017 20.9795Z" fill="#F27561" />
    <path d="M161.612 37.869C161.612 37.869 161.806 37.0195 163.385 37.4888C164.964 37.9576 164.793 38.8137 164.793 38.8137C164.793 38.8137 164.834 40.0623 162.638 39.4096C160.442 38.7573 161.612 37.869 161.612 37.869Z" fill="#F27561" />
    <path d="M161.392 40.2761C161.392 40.2761 161.433 41.5242 159.236 40.8719C157.041 40.2197 158.211 39.3309 158.211 39.3309C158.211 39.3309 158.404 38.4824 159.984 38.9512C161.564 39.42 161.392 40.2761 161.392 40.2761Z" fill="#F27561" />
    <path d="M160.386 37.5045C160.386 37.5045 160.428 38.7531 158.231 38.1008C156.035 37.4481 157.206 36.5597 157.206 36.5597C157.206 36.5597 157.399 35.7108 158.978 36.1801C160.558 36.6498 160.386 37.5045 160.386 37.5045Z" fill="#F27561" />
    <path d="M127.514 28.1174C127.514 28.1174 127.993 29.6471 131.791 33.1657C135.589 36.6844 143.795 34.4214 147.71 36.0487C151.624 37.6756 151.135 45.7667 157.193 49.0541C163.252 52.3405 164.26 48.9882 168.085 49.7253C171.91 50.4619 175.28 59.0057 175.28 59.0057C173.481 59.7419 171.636 53.463 170.138 51.7508C168.641 50.0391 165.891 50.6629 164.666 51.0976C163.441 51.5323 161.722 51.9793 156.973 50.0661C152.224 48.153 150.433 39.8002 148.029 37.8074C145.626 35.8151 142.869 36.0113 140.561 36.3626C138.254 36.7143 132.611 35.7847 129.456 31.9892C126.302 28.1928 127.514 28.1174 127.514 28.1174Z" fill="#ED6554" />
    <path d="M136.308 6.94132C139.463 7.92729 144.97 20.2453 147.725 21.8522C150.48 23.4582 157.796 20.068 162.752 22.2841C165.349 23.4445 166.375 26.3005 167.221 29.0052C168.396 28.937 170.213 29.01 170.07 30.1419C169.962 30.9975 168.887 31.3455 167.905 31.1497C168.447 32.7292 169.068 34.0451 170.129 34.622C173.316 36.354 173.989 34.0806 177.896 35.5178C181.803 36.9551 181.302 42.8306 181.302 42.8306C178.86 44.1204 178.756 39.5617 178.231 39.1726C177.885 38.9157 176.612 39.739 174.141 39.3508C173.557 40.6747 170.782 40.8885 169.793 39.2408C169.384 38.5601 169.649 38.1695 170.201 37.9539C169.923 37.8064 169.642 37.6548 169.348 37.4798C163.62 34.0702 164.796 27.266 161.816 25.7046C158.837 24.1437 154.536 28.3914 147.201 24.6641C139.866 20.9378 142.413 14.5617 134.531 11.2473C126.65 7.93297 123.901 8.33922 124.401 6.51043C124.901 4.68165 133.153 5.95583 136.308 6.94132Z" fill="#F2B6AD" />
    <path d="M127.498 13.2639C129.538 12.851 128.489 20.4633 130.104 21.5939C130.756 22.0504 132.039 21.9342 133.628 21.7778C132.755 20.6586 132.333 19.2754 133.108 18.6388C134.288 17.6713 135.913 20.0035 136.82 21.5683C138.415 21.5631 140.091 21.7716 141.64 22.5381C146.076 24.7348 145.459 30.5856 147.508 31.628C148.752 32.2613 151.006 31.6882 153.266 31.4626C153.638 30.3372 154.47 28.2331 155.331 28.8948C155.948 29.3693 156.044 30.5681 155.585 31.4199C156.226 31.482 156.837 31.6209 157.39 31.8835C160.434 33.3307 158.444 40.1576 161.883 41.9584C165.322 43.7592 169.948 42.5675 169.948 42.5675C171.286 45.7591 163.397 46.5508 160.339 44.0095C157.281 41.4687 158.041 36.2389 156.079 34.1048C154.116 31.9707 151.525 35.8079 147.004 32.9515C142.483 30.095 142.801 27.2784 140.245 25.3937C137.689 23.5094 130.688 26.2957 128.133 24.2489C125.579 22.203 125.458 13.6767 127.498 13.2639Z" fill="#F2B6AD" />
  </svg>