  <svg width="100" height="22" viewBox="0 0 100 22" fill="none" xmlns="http://www.w3.org/2000/svg">
    <path d="M99.5976 0.19101H0.390226C0.390226 0.19101 -7.71664 21.0347 49.9939 21.0347C107.705 21.0347 99.5976 0.19101 99.5976 0.19101Z" fill="#FAAC6D" />
    <path d="M49.9939 21.0347C56.3996 21.0347 61.9895 20.7773 66.8742 20.3218C65.1963 17.532 54.9944 19.5831 35.4839 17.4985C18.7581 15.7099 11.9149 5.36653 9.50853 0.19101H0.390226C0.390226 0.19101 -7.71664 21.0347 49.9939 21.0347Z" fill="#F59D61" />
    <path d="M93.8456 12.7605C88.7653 16.0033 77.9484 20.3295 47.5799 21.0218C17.2087 21.7141 5.13337 12.0142 5.13337 12.0142C5.13337 12.0142 0.611525 12.6087 13.0935 16.8783C25.5755 21.1505 34.7118 21.8736 47.5799 21.745C60.4479 21.6163 72.5438 21.745 83.8677 18.1419C95.1916 14.5389 93.8456 12.7605 93.8456 12.7605Z" fill="#F09252" />
    <path d="M36.7605 15.1772C36.7605 15.1772 36.7811 14.7062 35.8855 14.7242C34.9924 14.7448 34.959 15.2157 34.959 15.2157C34.959 15.2157 34.7582 15.8643 36.0013 15.8386C37.2469 15.8102 36.7605 15.1772 36.7605 15.1772Z" fill="#F59D61" />
    <path d="M36.5314 16.4691C36.5314 16.4691 36.3306 17.1176 37.5737 17.0893C38.8167 17.0636 38.3329 16.4305 38.3329 16.4305C38.3329 16.4305 38.3509 15.9569 37.4579 15.9775C36.5623 15.9981 36.5314 16.4691 36.5314 16.4691Z" fill="#F59D61" />
    <path d="M37.4553 15.1617C37.4553 15.1617 37.2546 15.8102 38.4976 15.7845C39.7407 15.7562 39.2543 15.1231 39.2543 15.1231C39.2543 15.1231 39.2749 14.6521 38.3818 14.6701C37.4862 14.6907 37.4553 15.1617 37.4553 15.1617Z" fill="#F59D61" />
    <path d="M95.4979 9.94239C95.4979 9.94239 95.7578 10.3387 96.4733 9.80086C97.1887 9.26555 96.9391 8.86149 96.9391 8.86149C96.9391 8.86149 96.7255 8.21809 95.7295 8.96444C94.7361 9.71078 95.4979 9.94239 95.4979 9.94239Z" fill="#F59D61" />
    <path d="M94.9318 8.75854C94.9318 8.75854 94.7182 8.11515 93.7222 8.86407C92.7288 9.61041 93.4905 9.84202 93.4905 9.84202C93.4905 9.84202 93.7505 10.2358 94.466 9.70049C95.1814 9.1626 94.9318 8.75854 94.9318 8.75854Z" fill="#F59D61" />
    <path d="M94.9446 10.3593C94.9446 10.3593 94.7284 9.71592 93.735 10.4623C92.739 11.2112 93.5034 11.4403 93.5034 11.4403C93.5034 11.4403 93.7608 11.8366 94.4762 11.3013C95.1917 10.7634 94.9446 10.3593 94.9446 10.3593Z" fill="#F59D61" />
  </svg>