  <svg width="100" height="56" viewBox="0 0 100 56" fill="none" xmlns="http://www.w3.org/2000/svg">
    <path d="M50.0443 1.62862C46.2495 1.37563 0.00883034 29.4955 0.00883034 29.4955C-0.696999 35.6051 42.9607 53.2381 48.9615 54.2501C54.9623 55.262 99.1234 32.4933 99.6294 30.4492C100.135 28.4051 53.8391 1.8816 50.0443 1.62862Z" fill="#FCE87D" />
    <path d="M51.2966 50.4932C46.5733 52.1807 13.6852 35.3141 12.5038 30.0267C11.7878 26.8214 16.2151 21.4632 19.8125 17.7367C9.25292 23.9298 0.00883034 29.5511 0.00883034 29.5511C-0.696999 35.6607 42.9607 53.2938 48.9615 54.3057C50.7223 54.6043 55.7668 52.8536 62.0307 50.1795C61.201 47.1285 55.4632 49.0057 51.2966 50.4932Z" fill="#F8DF6F" />
    <path d="M16.4883 30.7578C16.4883 30.7578 16.8754 30.5023 17.3105 31.2663C17.7456 32.0304 17.3636 32.2985 17.3636 32.2985C17.3636 32.2985 16.9184 32.7944 16.3138 31.7293C15.7091 30.6668 16.4883 30.7578 16.4883 30.7578Z" fill="#F8DF6F" />
    <path d="M15.5143 31.6028C15.5143 31.6028 15.069 32.0987 14.4644 31.0362C13.8598 29.9736 14.6389 30.0647 14.6389 30.0647C14.6389 30.0647 15.026 29.8092 15.4611 30.5732C15.8963 31.3372 15.5143 31.6028 15.5143 31.6028Z" fill="#F8DF6F" />
    <path d="M16.1519 30.1659C16.1519 30.1659 15.7041 30.6617 15.102 29.5967C14.4973 28.5341 15.2765 28.6252 15.2765 28.6252C15.2765 28.6252 15.6636 28.3697 16.0987 29.1337C16.5339 29.8977 16.1519 30.1659 16.1519 30.1659Z" fill="#F8DF6F" />
    <path d="M51.7343 47.083C51.7343 47.083 51.5724 46.6479 52.4148 46.3949C53.2572 46.1419 53.4293 46.5745 53.4293 46.5745C53.4293 46.5745 53.8138 47.1185 52.6425 47.4701C51.4712 47.8218 51.7343 47.083 51.7343 47.083Z" fill="#F8DF6F" />
    <path d="M52.3388 48.2215C52.3388 48.2215 52.7233 48.7679 51.552 49.117C50.3807 49.4687 50.6438 48.73 50.6438 48.73C50.6438 48.73 50.4794 48.2948 51.3243 48.0418C52.1668 47.7889 52.3388 48.2215 52.3388 48.2215Z" fill="#F8DF6F" />
    <path d="M51.0789 47.2779C51.0789 47.2779 51.4635 47.8243 50.2921 48.1734C49.1208 48.5251 49.3839 47.7864 49.3839 47.7864C49.3839 47.7864 49.222 47.3512 50.0644 47.0982C50.9069 46.8453 51.0789 47.2779 51.0789 47.2779Z" fill="#F8DF6F" />
    <path d="M94.5723 30.2165C94.5723 30.2165 94.4104 29.7814 95.2528 29.5284C96.0952 29.2754 96.2698 29.708 96.2698 29.708C96.2698 29.708 96.6518 30.2545 95.4805 30.6061C94.3092 30.9552 94.5723 30.2165 94.5723 30.2165Z" fill="#F8DF6F" />
    <path d="M95.177 31.3549C95.177 31.3549 95.5615 31.9013 94.3902 32.253C93.2189 32.6021 93.4819 31.8634 93.4819 31.8634C93.4819 31.8634 93.32 31.4283 94.1625 31.1753C95.0049 30.9248 95.177 31.3549 95.177 31.3549Z" fill="#F8DF6F" />
    <path d="M93.9195 30.4138C93.9195 30.4138 94.3015 30.9577 93.1301 31.3094C91.9588 31.661 92.2219 30.9198 92.2219 30.9198C92.2219 30.9198 92.06 30.4847 92.9025 30.2342C93.7449 29.9812 93.9195 30.4138 93.9195 30.4138Z" fill="#F8DF6F" />
    <path d="M99.6293 30.4492C99.265 32.7944 51.8025 53.6556 49.8165 54.283C47.8331 54.9078 40.6711 51.3787 40.6711 51.3787C39.9122 53.1496 48.5137 54.9205 49.8165 55.3C51.1219 55.6794 77.4805 44.5481 90.1298 37.2115C102.779 29.8749 99.6293 30.4492 99.6293 30.4492Z" fill="#F4D75F" />
    <path d="M50.0443 1.62863C51.9898 2.2788 60.7152 7.50017 61.0643 6.79763C61.416 6.09483 51.375 0.402658 49.8166 0.655643C48.2608 0.908629 27.1593 11.0098 27.9056 12.9806C27.9056 12.9806 48.0989 0.978708 50.0443 1.62863Z" fill="#F4D75F" />
  </svg>