  <svg width="100" height="28" viewBox="0 0 100 28" fill="none" xmlns="http://www.w3.org/2000/svg">
    <path d="M50.8346 0.292328C0.000251871 0.292328 0.000244141 16.0978 0.000244141 16.0978C0.000244141 16.0978 2.7158 27.0553 50.8346 27.0553C98.9532 27.0553 99.9426 16.0978 99.9426 16.0978C99.9426 16.0978 101.669 0.292328 50.8346 0.292328Z" fill="#F4B25E" />
    <path d="M97.8939 11.1865C93.7731 14.2716 80.8106 21.6069 50.7118 21.6069C19.3658 21.6069 6.51292 13.651 2.93743 10.8268C0.00100602 13.7245 0.000244141 16.0877 0.000244141 16.0877C0.000244141 16.0877 2.7158 27.0426 50.8346 27.0426C98.9532 27.0426 99.9426 16.0877 99.9426 16.0877C99.9426 16.0877 100.179 13.917 97.8939 11.1865Z" fill="#F2A653" />
    <path d="M29.7604 17.4858C29.7604 17.4858 29.7804 17.0223 28.9003 17.04C28.0201 17.0603 27.9876 17.5264 27.9876 17.5264C27.9876 17.5264 27.7906 18.1621 29.0145 18.1368C30.2384 18.1089 29.7604 17.4858 29.7604 17.4858Z" fill="#F2A653" />
    <path d="M29.5347 18.7574C29.5347 18.7574 29.3374 19.3957 30.5615 19.3703C31.7854 19.3425 31.3072 18.7194 31.3072 18.7194C31.3072 18.7194 31.3272 18.2559 30.447 18.2736C29.5668 18.2939 29.5347 18.7574 29.5347 18.7574Z" fill="#F2A653" />
    <path d="M30.4438 17.4706C30.4438 17.4706 30.2462 18.1089 31.4701 18.0836C32.694 18.0557 32.2163 17.4327 32.2163 17.4327C32.2163 17.4327 32.2363 16.9691 31.3559 16.9869C30.4759 17.0071 30.4438 17.4706 30.4438 17.4706Z" fill="#F2A653" />
    <path d="M92.9541 10.7863C92.9541 10.7863 92.9739 10.3202 92.094 10.3405C91.2138 10.3607 91.1811 10.8242 91.1811 10.8242C91.1811 10.8242 90.9843 11.4625 92.2082 11.4347C93.4321 11.4093 92.9541 10.7863 92.9541 10.7863Z" fill="#F2A653" />
    <path d="M92.7283 12.0578C92.7283 12.0578 92.5307 12.6961 93.7552 12.6682C94.9791 12.6429 94.5009 12.0198 94.5009 12.0198C94.5009 12.0198 94.5211 11.5537 93.6409 11.574C92.7605 11.5917 92.7283 12.0578 92.7283 12.0578Z" fill="#F2A653" />
    <path d="M93.6373 10.7711C93.6373 10.7711 93.44 11.4094 94.6639 11.3815C95.8878 11.3562 95.4099 10.7331 95.4099 10.7331C95.4099 10.7331 95.4299 10.267 94.5497 10.2873C93.6695 10.3075 93.6373 10.7711 93.6373 10.7711Z" fill="#F2A653" />
    <path d="M73.9796 25.9535C73.9796 25.9535 66.4472 27.1414 44.242 26.9717C22.0368 26.7994 6.75461 21.3156 6.75461 21.3156C6.07933 21.8222 8.35897 23.0887 15.343 24.497C22.3273 25.9028 30.902 26.9742 40.4259 27.4808C49.9494 27.9874 62.6478 27.3947 68.9801 27.0553C75.3124 26.7159 73.9796 25.9535 73.9796 25.9535Z" fill="#EB9744" />
    <path d="M18.7297 9.93517C18.2231 12.7214 20.5028 14.0259 20.5028 14.0259C23.0357 14.2336 22.3604 11.8779 22.6137 10.3582C22.867 8.83842 25.5686 7.73912 24.7244 6.13577C23.8802 4.53243 19.2363 7.14894 18.7297 9.93517Z" fill="#EB9744" />
    <path d="M81.0239 9.93517C80.5173 7.14894 75.8734 4.53243 75.0295 6.13577C74.185 7.73912 76.8866 8.83842 77.1399 10.3582C77.3932 11.8779 76.7179 14.2336 79.2508 14.0259C79.2508 14.0259 81.5305 12.7214 81.0239 9.93517Z" fill="#EB9744" />
    <path d="M35.0114 3.67377C35.0114 3.67377 32.1851 4.51724 30.4321 8.40276C28.679 12.2857 33.2383 17.3516 35.0114 16.2548C36.7844 15.1556 34.2515 11.4524 35.0114 9.84145C35.7712 8.23304 37.291 3.67377 35.0114 3.67377Z" fill="#EB9744" />
    <path d="M61.975 3.67377C59.6954 3.67377 61.2151 8.23304 61.975 9.84145C62.7349 11.4524 60.2019 15.1556 61.975 16.2548C63.748 17.3516 68.3073 12.2857 66.5545 8.40276C64.8012 4.51724 61.975 3.67377 61.975 3.67377Z" fill="#EB9744" />
    <path d="M48.5206 2.9975C48.5206 2.9975 44.8053 5.76851 44.3833 10.039C43.9613 14.3121 47.1698 19.0917 49.0272 18.1368C50.8846 17.1819 49.1113 10.6647 49.4491 10.039C49.787 9.41593 52.2354 2.91392 48.5206 2.9975Z" fill="#EB9744" />
  </svg>