  <svg width="100" height="50" viewBox="0 0 100 50" fill="none" xmlns="http://www.w3.org/2000/svg">
    <path d="M92.1193 15.8581C80.552 7.2327 44.925 -5.72256 11.8723 15.8581C11.8723 15.8581 -6.22098 29.559 4.13054 41.9547C14.4821 54.3506 47.1584 42.1721 50.3929 43.042C53.6267 43.912 76.4614 52.9377 88.8574 47.5548C101.253 42.1721 103.302 24.1966 92.1193 15.8581Z" fill="#FFEFC8" />
    <path d="M80.3921 46.0662C73.0875 47.3671 58.3567 38.2875 55.3709 35.8107C52.3848 33.3341 29.9908 46.8292 20.8244 44.5776C11.6577 42.3256 14.156 26.2848 13.8762 21.7123C13.7411 19.4998 12.1647 18.0026 10.574 17.045C6.5194 20.6292 -4.28023 31.7349 4.2543 41.9547C14.6058 54.3507 47.2822 42.1721 50.5163 43.0421C53.7505 43.912 76.5849 52.9378 88.9809 47.5548C95.4664 44.7387 99.1172 38.475 99.5247 31.9484C94.7105 32.2242 86.4149 44.9937 80.3921 46.0662Z" fill="#FCE4B6" />
    <path d="M16.2887 37.9C16.2887 37.9 15.7757 38.0121 16.0503 38.9668C16.3247 39.9216 16.8414 39.8228 16.8414 39.8228C16.8414 39.8228 17.5938 39.8542 17.212 38.5265C16.8305 37.1993 16.2887 37.9 16.2887 37.9Z" fill="#FCE4B6" />
    <path d="M17.7408 37.78C17.7408 37.78 18.4933 37.8115 18.1117 36.484C17.7299 35.1563 17.1881 35.8573 17.1881 35.8573C17.1881 35.8573 16.6754 35.9693 16.9498 36.9241C17.2244 37.8789 17.7408 37.78 17.7408 37.78Z" fill="#FCE4B6" />
    <path d="M16.0755 37.1593C16.0755 37.1593 16.828 37.1907 16.4462 35.8633C16.0647 34.5355 15.5228 35.2366 15.5228 35.2366C15.5228 35.2366 15.0101 35.3486 15.2845 36.3034C15.5591 37.2582 16.0755 37.1593 16.0755 37.1593Z" fill="#FCE4B6" />
    <path d="M48.8728 34.8379C48.8728 34.8379 49.2183 35.2334 49.9222 34.5324C50.6261 33.8314 50.2903 33.4264 50.2903 33.4264C50.2903 33.4264 49.9551 32.7523 48.9763 33.7268C47.9972 34.701 48.8728 34.8379 48.8728 34.8379Z" fill="#FCE4B6" />
    <path d="M48.0671 33.6236C48.0671 33.6236 47.7319 32.9495 46.7531 33.924C45.7737 34.8985 46.6494 35.0351 46.6494 35.0351C46.6494 35.0351 46.9946 35.4303 47.6987 34.7296C48.4026 34.0286 48.0671 33.6236 48.0671 33.6236Z" fill="#FCE4B6" />
    <path d="M48.3263 35.382C48.3263 35.382 47.9911 34.7073 47.012 35.6821C46.0332 36.6566 46.9086 36.7932 46.9086 36.7932C46.9086 36.7932 47.2538 37.1884 47.958 36.4874C48.6618 35.7867 48.3263 35.382 48.3263 35.382Z" fill="#FCE4B6" />
    <path d="M95.8987 29.5021C95.8987 29.5021 95.386 29.6141 95.6603 30.5686C95.935 31.5234 96.4517 31.4245 96.4517 31.4245C96.4517 31.4245 97.2041 31.456 96.8223 30.1283C96.4408 28.8011 95.8987 29.5021 95.8987 29.5021Z" fill="#FCE4B6" />
    <path d="M97.351 29.3818C97.351 29.3818 98.1035 29.4135 97.7217 28.0858C97.3402 26.758 96.7984 27.4593 96.7984 27.4593C96.7984 27.4593 96.2854 27.5711 96.5597 28.5259C96.8344 29.4807 97.351 29.3818 97.351 29.3818Z" fill="#FCE4B6" />
    <path d="M95.6858 28.7611C95.6858 28.7611 96.4382 28.7925 96.0564 27.4651C95.6749 26.1373 95.1331 26.8386 95.1331 26.8386C95.1331 26.8386 94.6204 26.9504 94.8947 27.9052C95.1694 28.86 95.6858 28.7611 95.6858 28.7611Z" fill="#FCE4B6" />
    <path d="M35.9801 45.7664C12.5556 51.2451 1.11269 44.6344 0.803473 33.3964C0.494545 22.1584 17.5442 11.5194 17.5442 11.5194C13.6927 10.8524 -0.228193 24.284 0.00271698 33.3964C0.233913 42.5088 8.25004 49.3375 22.92 48.1358C37.5899 46.9341 35.9801 45.7664 35.9801 45.7664Z" fill="#F8DAA9" />
    <path d="M93.8885 16.8541C88.4587 11.3288 75.6183 5.98186 74.4652 7.51221C74.4652 7.51221 93.2841 13.5216 96.73 20.9033C100.176 28.2853 100.618 37.0613 94.6335 43.4376C94.6335 43.4376 97.3496 43.6785 99.2389 36.0293C101.128 28.3804 99.3183 22.379 93.8885 16.8541Z" fill="#F8DAA9" />
    <path d="M67.5659 12.3119L34.9144 12.8483C33.2952 14.1057 33.9939 18.0209 52.0912 18.0209C70.1888 18.0209 67.5659 12.3119 67.5659 12.3119Z" fill="#FCE4B6" />
    <path d="M51.1585 0.945557C33.1921 0.945557 34.7713 12.0027 34.7713 12.0027C34.7713 12.0027 33.7559 16.8541 50.8081 16.8541C67.8606 16.8541 67.3785 12.0027 67.3785 12.0027C67.3785 12.0027 69.1252 0.945557 51.1585 0.945557Z" fill="#FEC149" />
    <path d="M67.3785 12.0027C67.3785 12.0027 67.6883 10.0405 66.7041 7.76968C64.5344 10.2974 59.4438 14.4724 49.4692 14.4724C40.0157 14.4724 36.2819 11.8412 34.8362 10.0571C34.659 11.2133 34.7713 12.0027 34.7713 12.0027C34.7713 12.0027 33.7559 16.8541 50.8081 16.8541C67.8606 16.8541 67.3785 12.0027 67.3785 12.0027Z" fill="#FAB53B" />
    <path d="M38.2323 8.92138C38.2323 8.92138 38.6821 8.65046 38.1152 7.83456C37.5485 7.01895 37.0909 7.27844 37.0909 7.27844C37.0909 7.27844 36.3682 7.49077 37.1567 8.62503C37.9446 9.75958 38.2323 8.92138 38.2323 8.92138Z" fill="#FAB53B" />
    <path d="M36.8961 9.50209C36.8961 9.50209 36.1733 9.71385 36.9615 10.8484C37.7497 11.9829 38.0375 11.145 38.0375 11.145C38.0375 11.145 38.487 10.8741 37.9203 10.0582C37.3533 9.24231 36.8961 9.50209 36.8961 9.50209Z" fill="#FAB53B" />
    <path d="M38.6724 9.55467C38.6724 9.55467 37.9497 9.76672 38.7379 10.901C39.526 12.0355 39.8136 11.1973 39.8136 11.1973C39.8136 11.1973 40.2634 10.9267 39.6964 10.1108C39.1297 9.29489 38.6724 9.55467 38.6724 9.55467Z" fill="#FAB53B" />
    <path d="M67.6445 10.0905C67.3587 7.08982 65.2154 3.32724 59.6427 1.75545C54.07 0.183664 45.6355 0.590328 45.3517 1.41109C45.3517 1.41109 54.8413 0.111076 60.5046 2.36216C66.1679 4.61297 68.3281 9.34462 66.9386 13.1706C66.9386 13.1706 67.9303 13.0912 67.6445 10.0905Z" fill="#F5A82C" />
  </svg>