  <svg width="100" height="26" aria-label="green-mayo" viewBox="0 0 100 26" fill="none" xmlns="http://www.w3.org/2000/svg">
    <path d="M96.2435 6.55168C96.2435 6.55168 95.3165 0.68103 49.5096 0.68103C3.70238 0.68103 2.77542 6.55168 2.77542 6.55168C-3.2498 11.8043 4.77093 19.1219 9.41868 20.3015C14.0664 21.481 17.4522 12.4223 20.3876 12.5769C23.3228 12.7315 22.5504 24.0093 28.8848 24.8065C35.2189 25.6034 35.5278 15.3578 41.8622 14.8943C48.1963 14.4308 46.3424 24.4728 55.1485 24.8065C63.9546 25.1399 63.4911 16.1302 69.5163 15.2032C75.5415 14.2762 76.623 26.0178 82.9572 23.8549C89.2913 21.6919 86.2015 15.3578 89.4459 14.1991C92.6902 13.0401 96.0891 18.2932 98.5608 14.1991C101.033 10.1049 96.2435 6.55168 96.2435 6.55168Z" fill="#ADCE73" />
    <path d="M97.3192 12.5324C95.3979 13.7968 92.6844 9.61783 89.5946 10.409C86.5049 11.2004 85.2688 17.0335 82.6425 17.8944C80.0162 18.7553 73.6818 10.3902 69.6651 10.409C65.6483 10.4278 64.8757 15.952 61.5373 16.834C58.1989 17.7162 50.0444 13.3257 44.9299 11.6291C39.8155 9.9323 35.2131 17.8059 33.5138 17.8939C31.8144 17.982 29.4968 8.07282 24.3985 7.17066C19.3003 6.2685 14.3566 15.4885 11.2668 16.0365C9.10816 16.4194 3.85812 11.9403 0.889769 9.20557C-0.761373 13.9945 5.51668 19.3112 9.4187 20.3015C14.0665 21.481 17.4522 12.4223 20.3876 12.5769C23.3228 12.7315 22.5504 24.0093 28.8848 24.8065C35.2189 25.6034 35.5278 15.3578 41.8622 14.8943C48.1963 14.4308 46.3424 24.4728 55.1485 24.8065C63.9546 25.14 63.4911 16.1302 69.5163 15.2032C75.5415 14.2763 76.6231 26.0178 82.9572 23.855C89.2913 21.6919 86.2015 15.3578 89.4459 14.1991C92.6902 13.0402 96.0891 18.2932 98.5609 14.1991C99.5124 12.6233 99.3863 11.1283 98.8735 9.88456C98.6019 10.7276 98.3864 11.8305 97.3192 12.5324Z" fill="#A2BB6A" />
    <path d="M6.85333 12.1781C6.85333 12.1781 6.61463 12.5306 7.30916 12.9382C8.00368 13.346 8.25234 12.9994 8.25234 12.9994C8.25234 12.9994 8.7121 12.5975 7.74621 12.0302C6.78032 11.4634 6.85333 12.1781 6.85333 12.1781Z" fill="#A2BB6A" />
    <path d="M7.63989 11.2961C7.63989 11.2961 8.09965 10.8945 7.13376 10.3272C6.16788 9.76014 6.24111 10.4751 6.24111 10.4751C6.24111 10.4751 6.00219 10.8273 6.69671 11.2352C7.39146 11.643 7.63989 11.2961 7.63989 11.2961Z" fill="#A2BB6A" />
    <path d="M6.314 11.8615C6.314 11.8615 6.774 11.4599 5.80811 10.8926C4.84222 10.3256 4.91522 11.0402 4.91522 11.0402C4.91522 11.0402 4.67653 11.3925 5.37106 11.8003C6.06581 12.2082 6.314 11.8615 6.314 11.8615Z" fill="#A2BB6A" />
    <path d="M59.7672 15.4996C59.7672 15.4996 59.5283 15.8521 60.223 16.2597C60.9176 16.6676 61.1662 16.3209 61.1662 16.3209C61.1662 16.3209 61.626 15.9191 60.6601 15.3518C59.6942 14.7849 59.7672 15.4996 59.7672 15.4996Z" fill="#A2BB6A" />
    <path d="M60.5538 14.6176C60.5538 14.6176 61.0136 14.216 60.0477 13.6487C59.0818 13.0816 59.1548 13.7965 59.1548 13.7965C59.1548 13.7965 58.9159 14.1488 59.6106 14.5566C60.3054 14.9645 60.5538 14.6176 60.5538 14.6176Z" fill="#A2BB6A" />
    <path d="M59.228 15.1831C59.228 15.1831 59.688 14.7814 58.7221 14.2142C57.756 13.6471 57.8292 14.3618 57.8292 14.3618C57.8292 14.3618 57.5903 14.714 58.2851 15.1219C58.9798 15.5297 59.228 15.1831 59.228 15.1831Z" fill="#A2BB6A" />
    <path d="M96.2448 8.52215C96.2448 8.52215 96.6233 8.32703 96.2087 7.63644C95.7943 6.94586 95.4101 7.13102 95.4101 7.13102C95.4101 7.13102 94.8141 7.26381 95.3904 8.22414C95.9668 9.18446 96.2448 8.52215 96.2448 8.52215Z" fill="#A2BB6A" />
    <path d="M95.1323 8.9196C95.1323 8.9196 94.536 9.05215 95.1126 10.0125C95.6889 10.973 95.967 10.3105 95.967 10.3105C95.967 10.3105 96.3454 10.1156 95.9308 9.42479C95.5163 8.73421 95.1323 8.9196 95.1323 8.9196Z" fill="#A2BB6A" />
    <path d="M96.5667 9.0582C96.5667 9.0582 95.9704 9.19053 96.5467 10.1511C97.1233 11.1114 97.4014 10.4491 97.4014 10.4491C97.4014 10.4491 97.7798 10.2542 97.3652 9.56339C96.9507 8.87258 96.5667 9.0582 96.5667 9.0582Z" fill="#A2BB6A" />
    <path d="M37.5921 17.2425C36.9585 16.9107 34.9814 24.4494 28.8848 24.8065C22.7879 25.1636 23.0083 14.4846 21.3532 13.1368C19.6984 11.789 18.4507 12.785 14.7422 17.7282C11.0337 22.6712 6.09136 19.5054 2.72326 15.7758C-0.644605 12.0462 0.618838 8.07306 0.618838 8.07306C-0.351222 8.2946 -0.165599 11.7809 1.07027 14.4072C2.30636 17.0337 5.1644 20.3552 10.417 20.8187C15.6698 21.2822 17.8709 13.9045 19.5322 13.4802C21.1936 13.0561 21.6951 15.6433 22.3903 18.6522C23.0855 21.6613 24.5531 24.1402 28.879 25.2218C33.2048 26.303 38.2257 17.5744 37.5921 17.2425Z" fill="#93A65E" />
    <path d="M99.7912 10.2083C98.9414 7.06893 96.2161 4.28806 95.4931 4.90588C95.4931 4.90588 101.887 9.92766 98.1741 14.2918C94.4612 18.6559 93.7773 13.2955 89.4459 13.7356C85.1144 14.1754 89.7603 22.8719 82.4163 23.5447C75.0722 24.2176 75.9994 14.5458 70.7466 14.6697C65.4938 14.7935 63.3154 20.0929 63.3154 20.0929C63.3154 20.0929 63.3391 20.6442 65.3392 18.115C67.3396 15.586 71.7507 14.0983 73.3729 16.6474C74.9951 19.1965 77.1581 24.99 82.6425 24.0631C88.127 23.1361 87.6633 19.1965 87.9725 17.6515C88.2814 16.1068 88.3979 13.73 90.7533 14.2918C93.1087 14.8533 94.158 17.2655 96.125 16.5702C98.0918 15.875 100.641 13.3477 99.7912 10.2083Z" fill="#93A65E" />
  </svg>