  <svg width="100" height="28" viewBox="0 0 100 28" fill="none" xmlns="http://www.w3.org/2000/svg">
    <path d="M50.834 0.292114C0.000625811 0.292114 0.000610352 16.0981 0.000610352 16.0981C0.000610352 16.0981 2.71593 27.0548 50.834 27.0548C98.9546 27.0548 99.9425 16.0981 99.9425 16.0981C99.9425 16.0981 101.67 0.292114 50.834 0.292114Z" fill="#B85B4F" />
    <path d="M97.8933 11.1865C93.7722 14.2709 80.8112 21.6052 50.7124 21.6052C19.3649 21.6052 6.51277 13.6503 2.9388 10.8261C0.000604071 13.7238 0.000610352 16.0857 0.000610352 16.0857C0.000610352 16.0857 2.71593 27.0424 50.834 27.0424C98.9546 27.0424 99.9425 16.0857 99.9425 16.0857C99.9425 16.0857 100.178 13.9173 97.8933 11.1865Z" fill="#A34F47" />
    <path d="M29.76 17.4856C29.76 17.4856 29.7803 17.0209 28.9014 17.0401C28.0199 17.0591 27.987 17.5244 27.987 17.5244C27.987 17.5244 27.792 18.1619 29.0154 18.1353C30.2388 18.1085 29.76 17.4856 29.76 17.4856Z" fill="#A34F47" />
    <path d="M29.5346 18.7574C29.5346 18.7574 29.337 19.395 30.5629 19.3684C31.7864 19.342 31.3076 18.7189 31.3076 18.7189C31.3076 18.7189 31.3279 18.2542 30.4464 18.2731C29.5675 18.2921 29.5346 18.7574 29.5346 18.7574Z" fill="#A34F47" />
    <path d="M30.4439 17.471C30.4439 17.471 30.2463 18.1085 31.4697 18.0819C32.6957 18.0553 32.217 17.4325 32.217 17.4325C32.217 17.4325 32.2372 16.9677 31.3558 16.9867C30.4768 17.0059 30.4439 17.471 30.4439 17.471Z" fill="#A34F47" />
    <path d="M92.954 10.7853C92.954 10.7853 92.9742 10.3203 92.0928 10.3398C91.2138 10.3588 91.1809 10.8241 91.1809 10.8241C91.1809 10.8241 90.9834 11.4616 92.2093 11.435C93.4327 11.4082 92.954 10.7853 92.954 10.7853Z" fill="#A34F47" />
    <path d="M92.7286 12.0571C92.7286 12.0571 92.531 12.6944 93.7544 12.668C94.9804 12.6414 94.5016 12.0186 94.5016 12.0186C94.5016 12.0186 94.5219 11.5538 93.6404 11.5728C92.7615 11.5918 92.7286 12.0571 92.7286 12.0571Z" fill="#A34F47" />
    <path d="M93.638 10.7706C93.638 10.7706 93.4404 11.4081 94.6638 11.3816C95.8872 11.3547 95.411 10.7319 95.411 10.7319C95.411 10.7319 95.4313 10.2671 94.5498 10.2863C93.6709 10.3056 93.638 10.7706 93.638 10.7706Z" fill="#A34F47" />
    <path d="M73.9799 25.9517C73.9799 25.9517 66.4469 27.1412 44.2433 26.9697C22.0371 26.7982 6.75589 21.3155 6.75589 21.3155C6.0796 21.822 8.35924 23.0885 15.3425 24.4956C22.3283 25.9028 30.9023 26.9725 40.4261 27.4791C49.9499 27.9857 62.6475 27.3945 68.9798 27.0548C75.3122 26.7152 73.9799 25.9517 73.9799 25.9517Z" fill="#914741" />
    <path d="M18.7291 9.93425C18.2225 12.7205 20.5021 14.0247 20.5021 14.0247C23.0351 14.2316 22.3613 11.8762 22.6146 10.3565C22.8679 8.83673 25.568 7.73896 24.7245 6.13485C23.8811 4.53075 19.2357 7.14802 18.7291 9.93425Z" fill="#914741" />
    <path d="M81.024 9.93425C80.5174 7.14802 75.8746 4.53075 75.0286 6.13485C74.1851 7.73896 76.8878 8.83673 77.1411 10.3565C77.3943 11.8762 76.718 14.2316 79.251 14.0247C79.251 14.0247 81.5306 12.7205 81.024 9.93425Z" fill="#914741" />
    <path d="M35.0108 3.67258C35.0108 3.67258 32.1866 4.5168 30.4313 8.40079C28.6785 12.2845 33.2377 17.3504 35.0108 16.2529C36.7838 15.1554 34.2509 11.4507 35.0108 9.84128C35.7707 8.23185 37.2904 3.67258 35.0108 3.67258Z" fill="#914741" />
    <path d="M61.9763 3.67258C59.6967 3.67258 61.2165 8.23185 61.9763 9.84128C62.7362 11.4507 60.2033 15.1554 61.9763 16.2529C63.7494 17.3504 68.3086 12.2845 66.5533 8.40079C64.8005 4.5168 61.9763 3.67258 61.9763 3.67258Z" fill="#914741" />
    <path d="M48.5214 2.99728C48.5214 2.99728 44.8056 5.7668 44.3826 10.0388C43.9621 14.3109 47.1688 19.0908 49.028 18.1361C50.8846 17.1817 49.1115 10.6637 49.4484 10.0388C49.7878 9.41396 52.2347 2.91268 48.5214 2.99728Z" fill="#914741" />
  </svg>