  <svg width="200" height="52" aria-label="lettuce" viewBox="0 0 200 52" fill="none" xmlns="http://www.w3.org/2000/svg">
    <path d="M164.69 44.0351C167.893 39.6844 161.446 35.9711 161.446 35.9711C167.663 38.1757 184.91 41.7991 187.217 35.8634C189.525 29.9277 182.54 27.3639 182.54 27.3639C182.54 27.3639 203.22 24.6386 198.494 14.2443C193.767 3.8546 178.432 11.6446 178.432 11.6446C178.432 11.6446 183.862 5.53379 178.159 1.22793C172.455 -3.07344 153.327 11.8332 153.327 11.8332C153.327 11.8332 155.991 8.63636 150.364 3.66599C145.218 -0.877833 134.338 11.8108 132.517 14.0108C133.287 12.9737 135.041 9.70947 128.122 8.22779C119.832 6.45875 117.701 27.9431 117.701 27.9431C132.176 53.9174 144.772 54.1285 147.95 48.8348C149.743 45.8445 147.501 43.2044 145.206 41.4713C151.345 44.4392 162.137 47.5013 164.69 44.0351Z" fill="#ADCE73" />
    <path d="M147.95 48.8349C149.743 45.8446 147.501 43.2045 145.206 41.4713C151.345 44.4392 162.137 47.5014 164.69 44.0351C167.893 39.6844 161.446 35.9711 161.446 35.9711C167.663 38.1757 184.91 41.7991 187.217 35.8634C189.525 29.9277 182.54 27.364 182.54 27.364C182.54 27.364 203.22 24.6386 198.494 14.2443C198.097 13.3733 197.619 12.6369 197.087 12.0038C196.667 14.0333 195.425 18.1057 192.07 19.5604C187.53 21.527 178.092 22.7214 177.503 23.7316C176.914 24.7374 181.87 31.3779 179.554 33.3356C177.239 35.2887 158.409 28.5852 156.976 29.9008C155.543 31.2163 156.33 37.7761 154.552 38.5843C152.775 39.388 141.476 32.8192 139.608 33.816C137.741 34.8128 137.476 40.2276 135.905 41.1616C134.334 42.0955 120.675 24.8226 117.701 27.9431C132.176 53.9175 144.772 54.1285 147.95 48.8349Z" fill="#A0B869" />
    <path d="M177.257 18.8824C176.434 17.2705 166.954 24.0548 152.529 26.421C138.103 28.7872 110.03 19.8657 111.08 27.3684C111.08 27.3684 132.213 31.6428 148.767 29.2183C165.321 26.7937 178.081 20.4943 177.257 18.8824Z" fill="#D0E28F" />
    <path d="M188.638 19.6143C188.638 19.6143 188.682 20.198 189.774 20.0408C190.866 19.8882 190.836 19.3045 190.836 19.3045C190.836 19.3045 190.987 18.4828 189.468 18.6984C187.951 18.9139 188.638 19.6143 188.638 19.6143Z" fill="#A0B869" />
    <path d="M188.728 18.0024C188.728 18.0024 188.879 17.1807 187.36 17.3963C185.842 17.6118 186.53 18.3122 186.53 18.3122C186.53 18.3122 186.574 18.8959 187.666 18.7387C188.758 18.5861 188.728 18.0024 188.728 18.0024Z" fill="#A0B869" />
    <path d="M187.79 19.7355C187.79 19.7355 187.941 18.9139 186.422 19.1294C184.904 19.3449 185.592 20.0498 185.592 20.0498C185.592 20.0498 185.636 20.6291 186.728 20.4764C187.82 20.3193 187.79 19.7355 187.79 19.7355Z" fill="#A0B869" />
    <path d="M165.984 30.1612C165.984 30.1612 165.839 30.7269 166.922 30.9334C168.005 31.14 168.166 30.5788 168.166 30.5788C168.166 30.5788 168.575 29.8469 167.069 29.5595C165.563 29.2722 165.984 30.1612 165.984 30.1612Z" fill="#A0B869" />
    <path d="M166.594 28.6615C166.594 28.6615 167.002 27.9342 165.495 27.6468C163.99 27.3595 164.413 28.244 164.413 28.244C164.413 28.244 164.267 28.8097 165.349 29.0162C166.433 29.2228 166.594 28.6615 166.594 28.6615Z" fill="#A0B869" />
    <path d="M165.144 29.9995C165.144 29.9995 165.553 29.2722 164.046 28.9848C162.54 28.6974 162.963 29.5819 162.963 29.5819C162.963 29.5819 162.816 30.1477 163.9 30.3543C164.983 30.5608 165.144 29.9995 165.144 29.9995Z" fill="#A0B869" />
    <path d="M145.147 33.8833C145.147 33.8833 144.916 34.4177 145.955 34.7858C146.994 35.1585 147.239 34.6286 147.239 34.6286C147.239 34.6286 147.754 33.9686 146.309 33.4568C144.866 32.9404 145.147 33.8833 145.147 33.8833Z" fill="#A0B869" />
    <path d="M145.978 32.4959C145.978 32.4959 146.493 31.8359 145.047 31.3241C143.604 30.8077 143.886 31.7507 143.886 31.7507C143.886 31.7507 143.655 32.2849 144.694 32.6576C145.733 33.0258 145.978 32.4959 145.978 32.4959Z" fill="#A0B869" />
    <path d="M144.341 33.596C144.341 33.596 144.856 32.936 143.411 32.4242C141.966 31.9078 142.248 32.8507 142.248 32.8507C142.248 32.8507 142.017 33.385 143.057 33.7577C144.095 34.1258 144.341 33.596 144.341 33.596Z" fill="#A0B869" />
    <path d="M128.49 33.2906C128.49 33.2906 128.089 33.7127 128.938 34.4176C129.787 35.1225 130.199 34.7095 130.199 34.7095C130.199 34.7095 130.909 34.2694 129.729 33.2861C128.549 32.3073 128.49 33.2906 128.49 33.2906Z" fill="#A0B869" />
    <path d="M129.748 32.2714C129.748 32.2714 130.457 31.8315 129.277 30.8527C128.097 29.8738 128.039 30.8572 128.039 30.8572C128.039 30.8572 127.637 31.2792 128.486 31.9841C129.335 32.689 129.748 32.2714 129.748 32.2714Z" fill="#A0B869" />
    <path d="M127.832 32.7429C127.832 32.7429 128.541 32.3029 127.361 31.3241C126.181 30.3453 126.122 31.3286 126.122 31.3286C126.122 31.3286 125.722 31.7506 126.57 32.4555C127.419 33.1605 127.832 32.7429 127.832 32.7429Z" fill="#A0B869" />
    <path d="M187.979 35.0552C189.244 28.226 184.135 27.7321 184.392 27.3594C184.65 26.9867 203.458 25.056 199.343 14.37C199.343 14.37 196.645 6.2791 190.167 8.38938C190.167 8.38938 197.23 8.76655 198.921 14.5227C200.612 20.2833 195.689 25.2671 182.54 27.3639C182.54 27.3639 188.999 29.344 187.519 34.898C186.038 40.4566 174.044 40.5239 161.446 35.9711C161.446 35.9711 160.801 36.3168 165.94 37.9557C171.078 39.5945 186.715 41.8799 187.979 35.0552Z" fill="#91A45D" />
    <path d="M152.763 3.76929C145.927 -2.82644 134.174 10.8679 134.174 10.8679C134.174 10.8679 133.515 9.55684 131.952 8.21435C130.39 6.86737 127.025 5.82119 122.967 10.1046C118.909 14.388 120.297 15.9191 120.297 15.9191C121.836 10.3471 125.01 8.72172 129.026 8.44784C133.042 8.17395 133.727 12.601 133.727 12.601C138.703 6.39593 147.428 -0.145942 152.051 4.38441C156.675 8.91477 152.864 12.4484 152.864 12.4484C153.341 13.3509 159.599 10.3605 152.763 3.76929Z" fill="#91A45D" />
    <path d="M35.2416 44.0351C32.0389 39.6844 38.4851 35.9711 38.4851 35.9711C32.2684 38.1757 15.022 41.7991 12.7142 35.8634C10.4064 29.9277 17.3909 27.3639 17.3909 27.3639C17.3909 27.3639 -3.28886 24.6386 1.43726 14.2443C6.16427 3.8546 21.4992 11.6446 21.4992 11.6446C21.4992 11.6446 16.0695 5.53379 21.7731 1.22793C27.4767 -3.07344 46.6048 11.8332 46.6048 11.8332C46.6048 11.8332 43.9409 8.63636 49.5672 3.66599C54.7132 -0.877833 65.5936 11.8108 67.4143 14.0108C66.6447 12.9737 64.8905 9.70947 71.81 8.22779C80.0998 6.45875 82.2307 27.9431 82.2307 27.9431C67.756 53.9174 55.1595 54.1285 51.9819 48.8348C50.1886 45.8445 52.4309 43.2044 54.7253 41.4713C48.5871 44.4392 37.795 47.5013 35.2416 44.0351Z" fill="#ADCE73" />
    <path d="M51.9819 48.8349C50.1886 45.8446 52.4309 43.2045 54.7253 41.4713C48.5871 44.4392 37.795 47.5014 35.2416 44.0351C32.0389 39.6844 38.4851 35.9711 38.4851 35.9711C32.2684 38.1757 15.022 41.7991 12.7142 35.8634C10.4064 29.9277 17.3909 27.364 17.3909 27.364C17.3909 27.364 -3.28886 24.6386 1.43726 14.2443C1.83462 13.3733 2.31235 12.6369 2.8444 12.0038C3.26511 14.0333 4.50658 18.1057 7.86102 19.5604C12.4017 21.527 21.8396 22.7214 22.4287 23.7316C23.0177 24.7374 18.0617 31.3779 20.3772 33.3356C22.6931 35.2887 41.5226 28.5852 42.9558 29.9008C44.389 31.2163 43.6014 37.7761 45.379 38.5843C47.157 39.388 58.456 32.8192 60.3238 33.816C62.1907 34.8128 62.4556 40.2276 64.0267 41.1616C65.5981 42.0955 79.257 24.8226 82.2307 27.9431C67.756 53.9175 55.1595 54.1285 51.9819 48.8349Z" fill="#A0B869" />
    <path d="M22.6742 18.8824C23.4977 17.2705 32.9778 24.0548 47.4031 26.421C61.8284 28.7872 89.9013 19.8657 88.852 27.3684C88.852 27.3684 67.7187 31.6428 51.1647 29.2183C34.6103 26.7937 21.8503 20.4943 22.6742 18.8824Z" fill="#D0E28F" />
    <path d="M11.2937 19.6143C11.2937 19.6143 11.2492 20.198 10.1577 20.0408C9.0653 19.8882 9.09493 19.3045 9.09493 19.3045C9.09493 19.3045 8.94452 18.4828 10.463 18.6984C11.9811 18.9139 11.2937 19.6143 11.2937 19.6143Z" fill="#A0B869" />
    <path d="M11.2031 18.0024C11.2031 18.0024 11.0527 17.1807 12.5716 17.3963C14.0892 17.6118 13.4014 18.3122 13.4014 18.3122C13.4014 18.3122 13.3574 18.8959 12.2654 18.7387C11.1735 18.5861 11.2031 18.0024 11.2031 18.0024Z" fill="#A0B869" />
    <path d="M12.1414 19.7355C12.1414 19.7355 11.9905 18.9139 13.5094 19.1294C15.027 19.3449 14.3396 20.0498 14.3396 20.0498C14.3396 20.0498 14.2952 20.6291 13.2028 20.4764C12.1117 20.3193 12.1414 19.7355 12.1414 19.7355Z" fill="#A0B869" />
    <path d="M33.9473 30.1612C33.9473 30.1612 34.0932 30.7269 33.0103 30.9334C31.9264 31.14 31.7656 30.5788 31.7656 30.5788C31.7656 30.5788 31.3571 29.8469 32.863 29.5595C34.3689 29.2722 33.9473 30.1612 33.9473 30.1612Z" fill="#A0B869" />
    <path d="M33.3379 28.6615C33.3379 28.6615 32.9293 27.9342 34.4361 27.6468C35.9416 27.3595 35.5186 28.244 35.5186 28.244C35.5186 28.244 35.6655 28.8097 34.582 29.0162C33.4986 29.2228 33.3379 28.6615 33.3379 28.6615Z" fill="#A0B869" />
    <path d="M34.7877 29.9995C34.7877 29.9995 34.3787 29.2722 35.8855 28.9848C37.3914 28.6974 36.9689 29.5819 36.9689 29.5819C36.9689 29.5819 37.1157 30.1477 36.0319 30.3543C34.9489 30.5608 34.7877 29.9995 34.7877 29.9995Z" fill="#A0B869" />
    <path d="M54.785 33.8833C54.785 33.8833 55.0153 34.4177 53.9768 34.7858C52.9378 35.1585 52.6922 34.6286 52.6922 34.6286C52.6922 34.6286 52.1772 33.9686 53.6221 33.4568C55.0661 32.9404 54.785 33.8833 54.785 33.8833Z" fill="#A0B869" />
    <path d="M53.9539 32.4959C53.9539 32.4959 53.4389 31.8359 54.8842 31.3241C56.3282 30.8077 56.0458 31.7507 56.0458 31.7507C56.0458 31.7507 56.277 32.2849 55.2376 32.6576C54.1986 33.0258 53.9539 32.4959 53.9539 32.4959Z" fill="#A0B869" />
    <path d="M55.5915 33.596C55.5915 33.596 55.0756 32.936 56.5209 32.4242C57.9653 31.9078 57.6833 32.8507 57.6833 32.8507C57.6833 32.8507 57.9146 33.385 56.8747 33.7577C55.8362 34.1258 55.5915 33.596 55.5915 33.596Z" fill="#A0B869" />
    <path d="M71.4418 33.2906C71.4418 33.2906 71.8423 33.7127 70.9937 34.4176C70.1451 35.1225 69.7325 34.7095 69.7325 34.7095C69.7325 34.7095 69.0226 34.2694 70.2026 33.2861C71.3821 32.3073 71.4418 33.2906 71.4418 33.2906Z" fill="#A0B869" />
    <path d="M70.1842 32.2714C70.1842 32.2714 69.4744 31.8315 70.6552 30.8527C71.8347 29.8738 71.8935 30.8572 71.8935 30.8572C71.8935 30.8572 72.2945 31.2792 71.4459 31.9841C70.5968 32.689 70.1842 32.2714 70.1842 32.2714Z" fill="#A0B869" />
    <path d="M72.1001 32.7429C72.1001 32.7429 71.3902 32.3029 72.5706 31.3241C73.7506 30.3453 73.8094 31.3286 73.8094 31.3286C73.8094 31.3286 74.2099 31.7506 73.3613 32.4555C72.5127 33.1605 72.1001 32.7429 72.1001 32.7429Z" fill="#A0B869" />
    <path d="M11.9519 35.0552C10.6871 28.226 15.7962 27.7321 15.5389 27.3594C15.2821 26.9867 -3.5263 25.056 0.588283 14.37C0.588283 14.37 3.28629 6.2791 9.76439 8.38938C9.76439 8.38938 2.70125 8.76655 1.01034 14.5227C-0.680126 20.2833 4.2431 25.2671 17.391 27.3639C17.391 27.3639 10.9327 29.344 12.413 34.898C13.8933 40.4566 25.8873 40.5239 38.4852 35.9711C38.4852 35.9711 39.1304 36.3168 33.9921 37.9557C28.8534 39.5945 13.2167 41.8799 11.9519 35.0552Z" fill="#91A45D" />
    <path d="M47.1689 3.76929C54.0048 -2.82644 65.7573 10.8679 65.7573 10.8679C65.7573 10.8679 66.4168 9.55684 67.9793 8.21435C69.5414 6.86737 72.9066 5.82119 76.9651 10.1046C81.0235 14.388 79.6343 15.9191 79.6343 15.9191C78.0956 10.3471 74.9217 8.72172 70.9059 8.44784C66.8905 8.17395 66.2045 12.601 66.2045 12.601C61.2282 6.39593 52.5038 -0.145942 47.8805 4.38441C43.2568 8.91477 47.0683 12.4484 47.0683 12.4484C46.591 13.3509 40.3329 10.3605 47.1689 3.76929Z" fill="#91A45D" />
  </svg>