  <svg width="100" height="18"  aria-label="mayo" viewBox="0 0 100 18" fill="none" xmlns="http://www.w3.org/2000/svg">
    <path d="M50.0748 0.242188C0.11588 0.242188 0.194825 10.1477 0.194825 10.1477C0.194825 10.1477 4.28022 17.3229 50.0748 17.3229C95.8719 17.3229 99.9558 10.1477 99.9558 10.1477C99.9558 10.1477 100.036 0.242188 50.0748 0.242188Z" fill="#FCE79A" />
    <path d="M50.0748 14.5856C13.9594 14.5856 3.78493 10.1229 1.09756 8.23627C-0.006219 9.36334 7.72465e-07 10.1478 7.72465e-07 10.1478C7.72465e-07 10.1478 4.08539 17.323 49.8807 17.323C95.6779 17.323 99.7617 10.1478 99.7617 10.1478C99.7617 10.1478 99.7669 9.43736 98.8171 8.39698C95.7918 10.3639 85.2042 14.5856 50.0748 14.5856Z" fill="#F8DD8B" />
    <path d="M79.3709 15.9495C79.3709 15.9495 67.0598 17.323 47.5205 17.323C27.9811 17.323 17.8879 15.1304 17.8879 15.1304C17.8879 19.1418 58.1312 17.323 69.6478 17.323C81.1644 17.323 79.3709 15.9495 79.3709 15.9495Z" fill="#F4D27A" />
    <path d="M6.89469 8.49916C6.89469 8.49916 6.85613 8.97303 7.75598 8.98778C8.65401 9.00253 8.70576 8.52867 8.70576 8.52867C8.70576 8.52867 8.93093 7.88529 7.68093 7.86485C6.43093 7.8444 6.89469 8.49916 6.89469 8.49916Z" fill="#F8DD8B" />
    <path d="M7.17364 7.20985C7.17364 7.20985 7.40139 6.56647 6.15035 6.54577C4.89932 6.52506 5.36334 7.17983 5.36334 7.17983C5.36334 7.17983 5.32478 7.65369 6.2241 7.66844C7.12447 7.68294 7.17364 7.20985 7.17364 7.20985Z" fill="#F8DD8B" />
    <path d="M6.19664 8.48752C6.19664 8.48752 6.42284 7.84414 5.17233 7.82396C3.92129 7.80351 4.38531 8.45776 4.38531 8.45776C4.38531 8.45776 4.34649 8.93162 5.24608 8.94637C6.1454 8.96112 6.19664 8.48752 6.19664 8.48752Z" fill="#F8DD8B" />
    <path d="M60.243 1.96994C60.243 1.96994 60.4656 1.54862 59.6426 1.18397C58.8196 0.81958 58.5867 1.23598 58.5867 1.23598C58.5867 1.23598 58.1286 1.74013 59.2725 2.24686C60.4164 2.75359 60.243 1.96994 60.243 1.96994Z" fill="#F8DD8B" />
    <path d="M59.4822 3.04784C59.4822 3.04784 59.0241 3.55199 60.168 4.05897C61.3119 4.56596 61.1385 3.78232 61.1385 3.78232C61.1385 3.78232 61.3611 3.36099 60.5381 2.99634C59.7151 2.63195 59.4822 3.04784 59.4822 3.04784Z" fill="#F8DD8B" />
    <path d="M60.8822 2.25282C60.8822 2.25282 60.4215 2.75697 61.5654 3.2637C62.7093 3.77068 62.5385 2.98704 62.5385 2.98704C62.5385 2.98704 62.7585 2.56597 61.9355 2.20158C61.1151 1.83667 60.8822 2.25282 60.8822 2.25282Z" fill="#F8DD8B" />
    <path d="M85.1318 11.2877C85.1318 11.2877 85.093 11.7619 85.9936 11.7763C86.8942 11.7911 86.9434 11.3175 86.9434 11.3175C86.9434 11.3175 87.1711 10.6739 85.9185 10.6537C84.6685 10.633 85.1318 11.2877 85.1318 11.2877Z" fill="#F8DD8B" />
    <path d="M85.4139 9.99841C85.4139 9.99841 85.6391 9.35504 84.3891 9.33433C83.1365 9.31389 83.6023 9.96839 83.6023 9.96839C83.6023 9.96839 83.5635 10.4423 84.4615 10.457C85.3621 10.4718 85.4139 9.99841 85.4139 9.99841Z" fill="#F8DD8B" />
    <path d="M84.4357 11.2764C84.4357 11.2764 84.6608 10.633 83.4108 10.6125C82.1582 10.5921 82.6241 11.2463 82.6241 11.2463C82.6241 11.2463 82.5853 11.7202 83.4833 11.7349C84.3839 11.7499 84.4357 11.2764 84.4357 11.2764Z" fill="#F8DD8B" />
  </svg>
