  <svg width="166" height="67" viewBox="0 0 166 67" fill="none" xmlns="http://www.w3.org/2000/svg">
    <path d="M90.3119 59.6127C84.747 61.907 65.1704 59.5902 60.6221 39.3405C56.0738 19.0909 78.1145 13.8242 78.1145 13.8242C78.1145 13.8242 101.506 4.58388 107.085 29.4223C112.663 54.2651 90.3119 59.6127 90.3119 59.6127ZM112.293 27.8867C105.456 -2.55515 76.7891 8.76851 76.7891 8.76851C76.7891 8.76851 49.7767 15.2206 55.3509 40.041C60.9252 64.8569 84.9172 67.6991 91.7374 64.8839C91.7374 64.8839 119.13 58.3285 112.293 27.8867Z" fill="#A892AE" />
    <path d="M113.302 34.662C113.285 34.8057 110.093 62.9442 87.2528 62.9442C64.3541 62.9442 55.3508 40.041 55.3508 40.041C60.9251 64.8569 84.9171 67.699 91.7374 64.8838C91.7374 64.8838 114.974 59.3253 113.302 34.662Z" fill="#92809A" />
    <path d="M85.4568 10.2636C54.7752 10.2636 60.0581 35.533 60.0581 35.533C58.8826 18.4219 78.1144 13.8242 78.1144 13.8242C78.1144 13.8242 101.506 4.58385 107.084 29.4222C107.575 31.6088 107.845 33.6428 107.938 35.533H107.939C107.939 35.533 116.138 10.2636 85.4568 10.2636Z" fill="#92809A" />
    <path d="M112.466 44.7869C111.775 48.5 101.172 70.5771 79.3056 64.9512C57.4395 59.3253 54.5929 39.1475 54.5929 39.1475C52.3156 39.4483 55.3741 47.0812 57.6191 50.2107C59.8641 53.3447 63.6056 62.0462 77.2254 65.7639C90.8447 69.4816 103.117 62.7961 108.933 54.8623C114.75 46.9286 112.466 44.7869 112.466 44.7869Z" fill="#807188" />
    <path d="M36.6116 52.972C31.0463 55.2708 11.4697 52.9496 6.92142 32.6999C2.3731 12.4502 24.4142 7.1835 24.4142 7.1835C24.4142 7.1835 47.8055 -2.05232 53.3838 22.7861C58.9626 47.6244 36.6116 52.972 36.6116 52.972ZM58.5931 21.2505C51.7558 -9.19309 23.0888 2.12782 23.0888 2.12782C23.0888 2.12782 -3.92405 8.57988 1.65022 33.4003C7.22494 58.2207 31.217 61.0584 38.0372 58.2477C38.0372 58.2477 65.4299 51.6924 58.5931 21.2505Z" fill="#A892AE" />
    <path d="M59.6014 28.0214C59.5848 28.165 56.3925 56.3035 33.5521 56.3035C10.6534 56.3035 1.65015 33.4003 1.65015 33.4003C7.22486 58.2207 31.2169 61.0584 38.0371 58.2477C38.0371 58.2477 61.2735 52.6846 59.6014 28.0214Z" fill="#92809A" />
    <path d="M31.756 3.62303C1.07489 3.62303 6.35732 28.8969 6.35732 28.8969H6.35776C5.18185 11.7812 24.4141 7.18353 24.4141 7.18353C24.4141 7.18353 47.8054 -2.05229 53.3837 22.7861C53.8749 24.9727 54.1452 27.0021 54.2381 28.8969H54.2385C54.2385 28.8969 62.4376 3.62303 31.756 3.62303Z" fill="#92809A" />
    <path d="M58.7659 38.1462C58.0744 41.8594 47.471 63.9364 25.6054 58.3105C3.73935 52.6846 0.892722 32.5068 0.892722 32.5068C-1.38503 32.8077 1.67352 40.4406 3.9185 43.5746C6.16347 46.7085 9.90539 55.4056 23.5247 59.1277C37.1446 62.8454 49.4169 56.1554 55.2332 48.2216C61.0495 40.2924 58.7659 38.1462 58.7659 38.1462Z" fill="#807188" />
    <path d="M142.75 53.5019C137.185 55.7962 117.608 53.4794 113.06 33.2297C108.511 12.9801 130.552 7.71339 130.552 7.71339C130.552 7.71339 153.943 -1.52692 159.522 23.316C165.1 48.1543 142.75 53.5019 142.75 53.5019ZM164.731 21.7759C157.894 -8.66596 129.227 2.6577 129.227 2.6577C129.227 2.6577 102.214 9.10977 107.788 33.9302C113.363 58.7461 137.355 61.5882 144.175 58.773C144.175 58.773 171.568 52.2222 164.731 21.7759Z" fill="#A892AE" />
    <path d="M165.739 28.5512C165.723 28.6949 162.53 56.8334 139.691 56.8334C116.792 56.8334 107.789 33.9302 107.789 33.9302C113.363 58.7461 137.355 61.5882 144.176 58.773C144.176 58.773 167.412 53.2145 165.739 28.5512Z" fill="#92809A" />
    <path d="M137.894 4.15285C107.213 4.15285 112.496 29.4223 112.496 29.4223H112.496C111.32 12.3111 130.553 7.7134 130.553 7.7134C130.553 7.7134 153.943 -1.52691 159.522 23.316C160.013 25.4981 160.284 27.532 160.376 29.4223H160.377C160.377 29.4223 168.576 4.15285 137.894 4.15285Z" fill="#92809A" />
    <path d="M164.904 38.676C164.212 42.3892 153.609 64.4663 131.743 58.8404C109.878 53.2145 107.031 33.0367 107.031 33.0367C104.753 33.3375 107.812 40.9704 110.057 44.0999C112.302 47.2339 116.044 55.9354 129.663 59.653C143.283 63.3752 155.555 56.6852 161.371 48.7515C167.188 40.8178 164.904 38.676 164.904 38.676Z" fill="#807188" />
  </svg>