  <svg width="182" height="38" aria-label="pickle" viewBox="0 0 182 38" fill="none" xmlns="http://www.w3.org/2000/svg">
    <path d="M43.2784 12.4214C43.2784 12.4214 42.1097 6.94886 24.2647 2.6219C6.42004 -1.70506 2.87468 2.62468 2.87468 2.62468C2.87468 2.62468 -7.40434 22.4727 17.9601 28.6229C43.3251 34.7727 43.2784 12.4214 43.2784 12.4214Z" fill="#98C555" />
    <path d="M43.2784 12.4214C43.2784 12.4214 43.1708 11.9346 42.5546 11.1391C41.1036 17.6815 36.0487 29.8762 18.6775 25.6642C0.0850424 21.1562 2.50605 7.24311 4.27435 1.73914C3.22945 2.19322 2.87468 2.62467 2.87468 2.62467C2.87468 2.62467 -7.40434 22.4727 17.9601 28.6229C43.3246 34.7732 43.2784 12.4214 43.2784 12.4214Z" fill="#8EB24F" />
    <path d="M10.0126 4.35509C8.50811 5.98388 12.891 7.83902 12.891 7.83902C12.891 7.83902 8.4111 7.30733 8.52889 9.79162C8.64623 12.2759 16.4077 8.69176 16.4077 8.69176C16.4077 8.69176 11.5162 2.7263 10.0126 4.35509Z" fill="#D6E597" />
    <path d="M21.6589 11.8661C21.6589 11.8661 15.1308 15.5912 16.3369 17.1512C17.543 18.7107 20.7683 15.539 20.7683 15.539C20.7683 15.539 20.4685 20.0411 22.762 19.7325C25.055 19.4234 22.3324 12.0292 21.6589 11.8661Z" fill="#D6E597" />
    <path d="M34.7784 10.3603C35.1419 8.53425 26.5042 10.5062 26.5042 10.5062C26.5042 10.5062 30.3064 17.3697 31.8996 15.6961C33.4942 14.023 30.207 12.2242 30.207 12.2242C30.207 12.2242 34.4148 12.1863 34.7784 10.3603Z" fill="#D6E597" />
    <path d="M10.1316 19.3764C10.1316 19.3764 9.48489 19.9256 10.6014 21.0795C11.7179 22.2334 12.3798 21.7008 12.3798 21.7008C12.3798 21.7008 13.4774 21.1742 11.9258 19.5695C10.3737 17.9647 10.1316 19.3764 10.1316 19.3764Z" fill="#8EB24F" />
    <path d="M12.1138 18.1028C12.1138 18.1028 13.2109 17.5766 11.6588 15.9718C10.1062 14.3666 9.86507 15.7783 9.86507 15.7783C9.86507 15.7783 9.21836 16.3275 10.3344 17.4819C11.4509 18.6358 12.1138 18.1028 12.1138 18.1028Z" fill="#8EB24F" />
    <path d="M9.26563 18.4806C9.26563 18.4806 10.3632 17.955 8.81108 16.3497C7.25898 14.745 7.01784 16.1567 7.01784 16.1567C7.01784 16.1567 6.37067 16.7054 7.48717 17.8598C8.60367 19.0142 9.26563 18.4806 9.26563 18.4806Z" fill="#8EB24F" />
    <path d="M39.3829 23.8714C39.3829 23.8714 35.8722 32.966 16.6432 28.3037C-2.5854 23.6409 0.886054 7.46297 0.886054 7.46297C-0.902103 7.42555 0.568704 15.0438 0.955345 16.7248C1.34152 18.4053 4.38246 25.94 16.2792 28.8248C28.1759 31.7091 34.8356 29.4003 37.6299 26.6976C40.4242 23.9943 39.3829 23.8714 39.3829 23.8714Z" fill="#829F44" />
    <path d="M138.164 12.4214C138.164 12.4214 139.332 6.94886 157.177 2.6219C175.022 -1.70506 178.567 2.62468 178.567 2.62468C178.567 2.62468 188.846 22.4727 163.481 28.6229C138.117 34.7727 138.164 12.4214 138.164 12.4214Z" fill="#98C555" />
    <path d="M138.164 12.4214C138.164 12.4214 138.271 11.9346 138.887 11.1391C140.338 17.6815 145.393 29.8762 162.764 25.6642C181.357 21.1562 178.936 7.24311 177.168 1.73914C178.212 2.19322 178.567 2.62467 178.567 2.62467C178.567 2.62467 188.846 22.4727 163.481 28.6229C138.117 34.7732 138.164 12.4214 138.164 12.4214Z" fill="#8EB24F" />
    <path d="M171.429 4.35509C172.934 5.98388 168.551 7.83902 168.551 7.83902C168.551 7.83902 173.031 7.30733 172.913 9.79162C172.796 12.2759 165.034 8.69176 165.034 8.69176C165.034 8.69176 169.925 2.7263 171.429 4.35509Z" fill="#D6E597" />
    <path d="M159.783 11.8661C159.783 11.8661 166.311 15.5912 165.105 17.1512C163.899 18.7107 160.674 15.539 160.674 15.539C160.674 15.539 160.974 20.0411 158.68 19.7325C156.387 19.4234 159.11 12.0292 159.783 11.8661Z" fill="#D6E597" />
    <path d="M146.664 10.3603C146.3 8.53425 154.938 10.5062 154.938 10.5062C154.938 10.5062 151.136 17.3697 149.542 15.6961C147.948 14.023 151.235 12.2242 151.235 12.2242C151.235 12.2242 147.027 12.1863 146.664 10.3603Z" fill="#D6E597" />
    <path d="M171.31 19.3764C171.31 19.3764 171.956 19.9256 170.84 21.0795C169.724 22.2334 169.062 21.7008 169.062 21.7008C169.062 21.7008 167.964 21.1742 169.516 19.5695C171.068 17.9647 171.31 19.3764 171.31 19.3764Z" fill="#8EB24F" />
    <path d="M169.328 18.1028C169.328 18.1028 168.231 17.5766 169.783 15.9718C171.335 14.3666 171.576 15.7783 171.576 15.7783C171.576 15.7783 172.224 16.3275 171.108 17.4819C169.991 18.6358 169.328 18.1028 169.328 18.1028Z" fill="#8EB24F" />
    <path d="M172.176 18.4806C172.176 18.4806 171.078 17.955 172.63 16.3497C174.183 14.745 174.424 16.1567 174.424 16.1567C174.424 16.1567 175.071 16.7054 173.954 17.8598C172.838 19.0142 172.176 18.4806 172.176 18.4806Z" fill="#8EB24F" />
    <path d="M142.059 23.8714C142.059 23.8714 145.57 32.966 164.799 28.3037C184.027 23.6409 180.555 7.46297 180.555 7.46297C182.344 7.42555 180.873 15.0438 180.487 16.7248C180.1 18.4053 177.059 25.94 165.163 28.8248C153.266 31.7091 146.606 29.4003 143.812 26.6976C141.018 23.9943 142.059 23.8714 142.059 23.8714Z" fill="#829F44" />
    <path d="M110.23 14.4563C110.23 14.4563 107.7 9.46458 89.3419 9.8503C70.9841 10.236 68.6652 15.3289 68.6652 15.3289C68.6652 15.3289 63.8102 37.1466 89.9037 36.5987C115.998 36.0509 110.23 14.4563 110.23 14.4563Z" fill="#98C555" />
    <path d="M110.231 14.4563C110.231 14.4563 110.002 14.0128 109.203 13.4017C109.474 20.0979 107.71 33.18 89.8398 33.5555C70.7124 33.9569 69.491 19.8882 69.7917 14.1149C68.8979 14.8212 68.6655 15.3289 68.6655 15.3289C68.6655 15.3289 63.8101 37.1471 89.9035 36.5992C115.997 36.0514 110.231 14.4563 110.231 14.4563Z" fill="#8EB24F" />
    <path d="M76.008 15.1746C74.971 17.1341 79.6827 17.8053 79.6827 17.8053C79.6827 17.8053 75.2158 18.4381 75.9655 20.8097C76.7152 23.1808 83.3001 17.7291 83.3001 17.7291C83.3001 17.7291 77.0451 13.215 76.008 15.1746Z" fill="#D6E597" />
    <path d="M89.1889 19.4535C89.1889 19.4535 83.8323 24.7255 85.3974 25.9247C86.9629 27.1239 89.2684 23.2321 89.2684 23.2321C89.2684 23.2321 90.1313 27.6611 92.2687 26.7756C94.407 25.8896 89.8818 19.4391 89.1889 19.4535Z" fill="#D6E597" />
    <path d="M101.486 14.6397C101.37 12.7813 93.5251 16.8985 93.5251 16.8985C93.5251 16.8985 98.9571 22.56 100.07 20.5344C101.183 18.5089 97.544 17.6113 97.544 17.6113C97.544 17.6113 101.602 16.498 101.486 14.6397Z" fill="#D6E597" />
    <path d="M79.9691 29.6646C79.9691 29.6646 79.4845 30.3612 80.8592 31.1908C82.2335 32.0205 82.7375 31.3359 82.7375 31.3359C82.7375 31.3359 83.6636 30.5464 81.7526 29.392C79.8411 28.2381 79.9691 29.6646 79.9691 29.6646Z" fill="#8EB24F" />
    <path d="M81.5587 27.9258C81.5587 27.9258 82.4849 27.1364 80.5734 25.9825C78.6619 24.8286 78.7903 26.255 78.7903 26.255C78.7903 26.255 78.3053 26.9512 79.68 27.7813C81.0547 28.6114 81.5587 27.9258 81.5587 27.9258Z" fill="#8EB24F" />
    <path d="M78.902 29.0202C78.902 29.0202 79.8286 28.2312 77.9176 27.0768C76.0061 25.9229 76.1345 27.3494 76.1345 27.3494C76.1345 27.3494 75.6495 28.0455 77.0242 28.8756C78.3989 29.7057 78.902 29.0202 78.902 29.0202Z" fill="#8EB24F" />
    <path d="M109.395 26.5216C109.395 26.5216 108.331 36.2121 88.5487 36.6274C68.7671 37.0431 67.9818 20.515 67.9818 20.515C66.2431 20.9368 69.6153 27.9245 70.4195 29.4507C71.2233 30.9765 76.0916 37.481 88.3302 37.2242C100.569 36.9674 106.415 33.0303 108.425 29.702C110.434 26.3742 109.395 26.5216 109.395 26.5216Z" fill="#829F44" />
  </svg>