  <svg width="100" height="98" viewBox="0 0 100 98" fill="none" xmlns="http://www.w3.org/2000/svg">
    <path d="M82.9545 11.0263C82.9545 11.0263 47.5706 -18.0163 14.8575 20.7315C-17.8483 59.4794 24.964 85.4864 24.964 85.4864C24.964 85.4864 59.8445 114.135 86.5155 82.5383C113.179 50.949 93.2946 17.0902 82.9545 11.0263Z" fill="#DB3932" />
    <path d="M24.964 85.4864C24.964 85.4864 59.8445 114.135 86.5155 82.5383C88.4347 80.2616 90.0911 77.9703 91.5505 75.679C78.9483 86.9823 58.998 96.0891 32.2321 73.4972C5.05019 50.5476 11.4789 28.8167 20.6952 14.5508C18.7469 16.3897 16.7985 18.4403 14.8575 20.7316C-17.8483 59.4794 24.964 85.4864 24.964 85.4864Z" fill="#CA3131" />
    <path d="M57.6334 76.4524C57.6334 76.4524 58.0931 74.6355 54.6051 73.986C51.117 73.3293 50.6063 75.1389 50.6063 75.1389C50.6063 75.1389 49.3001 77.4959 54.1527 78.4007C59.0053 79.3129 57.6334 76.4524 57.6334 76.4524Z" fill="#CA3131" />
    <path d="M55.6851 81.2907C55.6851 81.2907 54.3789 83.6403 59.2315 84.5452C64.0914 85.4573 62.7196 82.6041 62.7196 82.6041C62.7196 82.6041 63.1793 80.7872 59.6912 80.1304C56.1959 79.481 55.6851 81.2907 55.6851 81.2907Z" fill="#CA3131" />
    <path d="M60.3408 76.9633C60.3408 76.9633 59.0346 79.313 63.8872 80.2251C68.7398 81.13 67.3679 78.2768 67.3679 78.2768C67.3679 78.2768 67.8349 76.4598 64.3396 75.8104C60.8515 75.1537 60.3408 76.9633 60.3408 76.9633Z" fill="#CA3131" />
    <path d="M11.209 25.4528C24.8182 6.86697 37.8145 3.41545 37.8145 3.41545C36.0413 -0.138259 26.2047 7.36314 19.2067 13.2884C12.2015 19.2064 -9.90161 45.3886 5.13051 66.7692C20.1699 88.1572 27.3503 87.2451 27.3503 87.2451C-1.24723 68.163 -2.40747 44.0313 11.209 25.4528Z" fill="#B22A2B" />
    <path d="M53.0071 38.2301C53.0071 38.2301 46.4178 11.7268 39.9014 14.6895C33.3851 17.6594 41.4265 28.4592 41.4265 28.4592C41.4265 28.4592 30.8238 18.8488 27.3139 25.9125C23.8112 32.9688 50.329 40.8716 53.0071 38.2301Z" fill="#F37F80" />
    <path d="M72.235 54.4589C72.235 54.4589 84.2243 60.574 86.0558 53.6563C87.8874 46.7313 60.6544 44.688 60.6544 44.688C58.4945 47.7674 70.7464 72.585 77.1168 67.944C83.4799 63.3031 72.235 54.4589 72.235 54.4589Z" fill="#F37F80" />
    <path d="M84.341 22.7163C80.0868 16.0832 70.5859 26.7735 70.5859 26.7735C70.5859 26.7735 77.4088 15.171 70.6151 12.9235C63.8215 10.676 60.1292 37.7411 60.1292 37.7411C63.0772 40.0835 88.588 29.3567 84.341 22.7163Z" fill="#F37F80" />
    <path d="M54.576 44.3159C54.576 44.3159 28.5179 52.496 31.8746 58.8154C35.2313 65.142 45.5202 56.4657 45.5202 56.4657C45.5202 56.4657 36.5739 67.6303 43.8273 70.7024C51.088 73.7818 57.3781 46.8262 54.576 44.3159Z" fill="#F37F80" />
  </svg>
  