  <svg width="159" height="46" aria-label="tomato"  viewBox="0 0 159 46" fill="none" xmlns="http://www.w3.org/2000/svg">
    <path d="M70.2617 8.50502C70.2617 8.50502 66.1952 0.28846 36.1139 0.629696C6.03349 0.970932 2.15373 9.27728 2.15373 9.27728C2.15373 9.27728 -6.14459 44.9455 36.6118 44.4605C79.3687 43.9756 70.2617 8.50502 70.2617 8.50502Z" fill="#DB3932" />
    <path d="M70.2618 8.50503C70.2618 8.50503 69.8941 7.77765 68.5943 6.76292C68.9346 17.7364 65.8375 39.1399 36.5554 39.4722C5.21376 39.8314 3.43529 16.7621 4.01853 7.30624C2.54314 8.45118 2.15431 9.27728 2.15431 9.27728C2.15431 9.27728 -6.14446 44.9455 36.6119 44.4606C79.3683 43.9756 70.2618 8.50503 70.2618 8.50503Z" fill="#CA3131" />
    <path d="M14.1859 9.14263C12.4564 12.335 20.1643 13.5113 20.1643 13.5113C20.1643 13.5113 12.8367 14.4767 14.027 18.3739C15.2182 22.2712 26.0924 13.444 26.0924 13.444C26.0924 13.444 15.9155 5.95027 14.1859 9.14263Z" fill="#F37F80" />
    <path d="M35.7121 16.3624C35.7121 16.3624 26.8534 24.9113 29.3983 26.9003C31.9437 28.8894 35.7822 22.5541 35.7822 22.5541C35.7822 22.5541 37.126 29.8233 40.6425 28.4045C44.1586 26.9857 36.8472 16.349 35.7121 16.3624Z" fill="#F37F80" />
    <path d="M55.9333 8.66661C55.7726 5.62242 42.8555 12.2451 42.8555 12.2451C42.8555 12.2451 51.6652 21.6022 53.52 18.3021C55.3752 15.002 49.4287 13.4754 49.4287 13.4754C49.4287 13.4754 56.0941 11.7153 55.9333 8.66661Z" fill="#F37F80" />
    <path d="M20.4463 32.9439C20.4463 32.9439 19.6412 34.0753 21.8804 35.4582C24.1191 36.8411 24.9546 35.7231 24.9546 35.7231C24.9546 35.7231 26.4848 34.4435 23.3724 32.5263C20.2595 30.6046 20.4463 32.9439 20.4463 32.9439Z" fill="#CA3131" />
    <path d="M23.0778 30.1196C23.0778 30.1196 24.6076 28.84 21.4951 26.9183C18.3814 25.0011 18.569 27.3404 18.569 27.3404C18.569 27.3404 17.7635 28.4718 20.0022 29.8547C22.2418 31.2332 23.0778 30.1196 23.0778 30.1196Z" fill="#CA3131" />
    <path d="M18.7085 31.8707C18.7085 31.8707 20.2387 30.591 17.1263 28.6693C14.0125 26.7521 14.2002 29.0914 14.2002 29.0914C14.2002 29.0914 13.3951 30.2229 15.6343 31.6058C17.8734 32.9842 18.7085 31.8707 18.7085 31.8707Z" fill="#CA3131" />
    <path d="M68.7042 28.2608C68.7042 28.2608 66.8059 44.1148 34.3916 44.4874C1.97777 44.8556 0.952261 17.7633 0.952261 17.7633C-1.90245 18.4278 3.51153 29.9311 4.80464 32.4409C6.09819 34.9553 13.9704 45.6863 34.0243 45.4573C54.0782 45.2328 63.719 38.875 67.0631 33.4557C70.4072 28.0318 68.7042 28.2608 68.7042 28.2608Z" fill="#B22A2B" />
    <path d="M157.522 8.94054C157.522 8.94054 153.455 0.723984 123.374 1.06971C93.2937 1.41095 89.414 9.71735 89.414 9.71735C89.414 9.71735 81.1157 45.381 123.872 44.8961C166.629 44.4112 157.522 8.94054 157.522 8.94054Z" fill="#DB3932" />
    <path d="M157.522 8.94506C157.522 8.94506 157.154 8.21324 155.855 7.19852C156.195 18.1719 153.098 39.5755 123.816 39.9123C92.4745 40.267 90.696 17.1976 91.2788 7.74628C89.8034 8.88672 89.4146 9.71737 89.4146 9.71737C89.4146 9.71737 81.1158 45.381 123.872 44.8961C166.628 44.4112 157.522 8.94506 157.522 8.94506Z" fill="#CA3131" />
    <path d="M101.446 9.57813C99.7162 12.775 107.424 13.9468 107.424 13.9468C107.424 13.9468 100.097 14.9122 101.287 18.8095C102.478 22.7068 113.353 13.8795 113.353 13.8795C113.353 13.8795 103.176 6.38578 101.446 9.57813Z" fill="#F37F80" />
    <path d="M122.972 16.798C122.972 16.798 114.113 25.3514 116.659 27.3404C119.204 29.3295 123.043 22.9896 123.043 22.9896C123.043 22.9896 124.386 30.2589 127.903 28.84C131.419 27.4257 124.108 16.7845 122.972 16.798Z" fill="#F37F80" />
    <path d="M143.194 9.10671C143.033 6.05804 130.116 12.6807 130.116 12.6807C130.116 12.6807 138.926 22.0422 140.78 18.7421C142.636 15.4375 136.689 13.9109 136.689 13.9109C136.689 13.9109 143.355 12.1509 143.194 9.10671Z" fill="#F37F80" />
    <path d="M107.706 33.3794C107.706 33.3794 106.902 34.5153 109.141 35.8937C111.379 37.2766 112.214 36.1631 112.214 36.1631C112.214 36.1631 113.745 34.8835 110.632 32.9618C107.52 31.0401 107.706 33.3794 107.706 33.3794Z" fill="#CA3131" />
    <path d="M110.338 30.5552C110.338 30.5552 111.868 29.2756 108.755 27.3584C105.642 25.4367 105.829 27.7759 105.829 27.7759C105.829 27.7759 105.024 28.9074 107.262 30.2903C109.502 31.6732 110.338 30.5552 110.338 30.5552Z" fill="#CA3131" />
    <path d="M105.969 32.3063C105.969 32.3063 107.499 31.0311 104.387 29.1094C101.273 27.1877 101.461 29.527 101.461 29.527C101.461 29.527 100.656 30.6585 102.895 32.0414C105.133 33.4243 105.969 32.3063 105.969 32.3063Z" fill="#CA3131" />
    <path d="M155.964 28.6963C155.964 28.6963 154.066 44.5548 121.652 44.923C89.238 45.2912 88.2125 18.2033 88.2125 18.2033C85.3578 18.8634 90.7718 30.3666 92.0649 32.8765C93.3584 35.3909 101.231 46.1263 121.285 45.8973C141.338 45.6684 150.979 39.3106 154.323 33.8912C157.667 28.4719 155.964 28.6963 155.964 28.6963Z" fill="#B22A2B" />
  </svg>