  <svg width="100" height="44" aria-label="top-bun"  viewBox="0 0 100 44" fill="none" xmlns="http://www.w3.org/2000/svg">
    <path d="M51.0569 0.831818C0.993872 0.831818 1.19545 38.4791 1.19545 38.4791C1.19545 38.4791 4.40477 43.0828 51.0569 43.0828C97.7088 43.0828 99.9394 38.4791 99.9394 38.4791C99.9394 38.4791 101.119 0.831818 51.0569 0.831818Z" fill="#FAAC6D" />
    <path d="M44.8011 1.04156C1.01326 4.0409 1.19545 38.4791 1.19545 38.4791C1.19545 38.4791 3.2303 41.3975 27.6067 42.5871C27.0227 36.0533 16.4241 30.6178 21.4172 19.6038C25.3629 10.9005 37.4904 4.33586 44.8011 1.04156Z" fill="#F59D61" />
    <path d="M25.4188 34.0394C25.4188 34.0394 24.9608 34.1397 25.206 34.9916C25.4509 35.8438 25.9125 35.7558 25.9125 35.7558C25.9125 35.7558 26.5843 35.7841 26.2434 34.5984C25.9028 33.4135 25.4188 34.0394 25.4188 34.0394Z" fill="#F59D61" />
    <path d="M26.7152 33.9322C26.7152 33.9322 27.387 33.96 27.0464 32.7751C26.7058 31.5894 26.222 32.2156 26.222 32.2156C26.222 32.2156 25.764 32.3156 26.0092 33.1678C26.2544 34.0205 26.7152 33.9322 26.7152 33.9322Z" fill="#F59D61" />
    <path d="M25.2287 33.3775C25.2287 33.3775 25.9005 33.4061 25.5596 32.2209C25.2187 31.0354 24.7354 31.6613 24.7354 31.6613C24.7354 31.6613 24.2774 31.7608 24.5226 32.6136C24.7676 33.4663 25.2287 33.3775 25.2287 33.3775Z" fill="#F59D61" />
    <path d="M67.7976 41.0921C67.7976 41.0921 67.7596 41.5591 68.6465 41.5733C69.5332 41.5884 69.5835 41.1209 69.5835 41.1209C69.5835 41.1209 69.8065 40.4866 68.5733 40.4665C67.3404 40.4461 67.7976 41.0921 67.7976 41.0921Z" fill="#F59D61" />
    <path d="M68.0738 39.8207C68.0738 39.8207 68.2968 39.1864 67.0639 39.1659C65.8304 39.1455 66.2879 39.7913 66.2879 39.7913C66.2879 39.7913 66.2499 40.2583 67.1366 40.2728C68.0235 40.2871 68.0738 39.8207 68.0738 39.8207Z" fill="#F59D61" />
    <path d="M67.1094 41.0806C67.1094 41.0806 67.3324 40.446 66.0995 40.4261C64.8661 40.4057 65.3236 41.051 65.3236 41.051C65.3236 41.051 65.2853 41.5182 66.1722 41.5325C67.0591 41.5475 67.1094 41.0806 67.1094 41.0806Z" fill="#F59D61" />
    <path d="M93.9861 21.7779C93.9861 21.7779 94.3918 21.5427 93.8978 20.806C93.4046 20.0692 92.9918 20.2942 92.9918 20.2942C92.9918 20.2942 92.3434 20.4726 93.0303 21.4973C93.7164 22.5214 93.9861 21.7779 93.9861 21.7779Z" fill="#F59D61" />
    <path d="M92.7844 22.2758C92.7844 22.2758 92.1363 22.4544 92.8224 23.4788C93.5091 24.5038 93.7783 23.76 93.7783 23.76C93.7783 23.76 94.1842 23.5247 93.6905 22.7881C93.1965 22.0512 92.7844 22.2758 92.7844 22.2758Z" fill="#F59D61" />
    <path d="M94.3692 22.35C94.3692 22.35 93.7211 22.5283 94.4075 23.5525C95.0943 24.5772 95.3633 23.8337 95.3633 23.8337C95.3633 23.8337 95.7687 23.5987 95.275 22.8618C94.7815 22.1249 94.3692 22.35 94.3692 22.35Z" fill="#F59D61" />
    <path d="M94.806 19.689C89.7133 12.2895 80.3576 3.14684 63.6876 1.04156C47.0176 -1.06372 26.4593 1.58402 25.937 5.02299C25.937 5.02299 33.1967 0.831818 52.3332 0.831818C71.4698 0.831818 90.8286 7.01906 98.372 28.6633C98.372 28.6633 99.8986 27.0885 94.806 19.689Z" fill="#F19354" />
    <path d="M78.746 42.3393C78.746 42.3393 64.8243 42.9294 39.0614 42.9693C13.2985 43.0085 0.154166 37.8049 0.154166 37.8049C-0.951418 38.4502 3.8539 41.2495 15.7186 42.587C27.5833 43.9246 50.8023 43.6735 66.1828 43.6735C81.5632 43.6735 78.746 42.3393 78.746 42.3393Z" fill="#F19354" />
    <path d="M37.6132 4.9278C37.6132 4.9278 36.8365 3.94444 35.4559 5.77951C34.0752 7.61458 35.5041 7.7317 35.5041 7.7317C35.5041 7.7317 36.1782 8.53288 37.342 6.98614C38.5055 5.43965 37.6132 4.9278 37.6132 4.9278Z" fill="#F8CDB1" />
    <path d="M27.3105 11.4751C27.3105 11.4751 26.704 10.3784 25.0435 11.9642C23.3827 13.5502 24.773 13.898 24.773 13.898C24.773 13.898 25.308 14.7987 26.7078 13.462C28.1076 12.1252 27.3105 11.4751 27.3105 11.4751Z" fill="#F8CDB1" />
    <path d="M20.0664 18.7847C20.0664 18.7847 19.4382 17.7001 17.8093 19.319C16.1804 20.9377 17.5778 21.2577 17.5778 21.2577C17.5778 21.2577 18.1305 22.1474 19.5035 20.7828C20.8765 19.4188 20.0664 18.7847 20.0664 18.7847Z" fill="#F8CDB1" />
    <path d="M33.3142 15.2243C33.3142 15.2243 32.1605 15.7137 33.5656 17.5296C34.971 19.3461 35.4611 17.9991 35.4611 17.9991C35.4611 17.9991 36.4118 17.5603 35.2277 16.0296C34.0432 14.4987 33.3142 15.2243 33.3142 15.2243Z" fill="#F8CDB1" />
    <path d="M29.9177 24.3392C29.9177 24.3392 29.1578 23.3428 27.7466 25.1547C26.3353 26.9663 27.7619 27.1071 27.7619 27.1071C27.7619 27.1071 28.4227 27.9198 29.612 26.3927C30.8015 24.8658 29.9177 24.3392 29.9177 24.3392Z" fill="#F8CDB1" />
    <path d="M47.9755 10.3049C47.9755 10.3049 47.2677 9.27105 45.7648 11.0071C44.262 12.7434 45.6793 12.9578 45.6793 12.9578C45.6793 12.9578 46.2971 13.8034 47.5637 12.34C48.8305 10.8767 47.9755 10.3049 47.9755 10.3049Z" fill="#F8CDB1" />
    <path d="M59.5794 5.30928C57.8359 4.46906 57.5077 5.44399 57.5077 5.44399C57.5077 5.44399 56.6943 6.39725 58.7629 7.39414C60.8314 8.39128 60.6681 6.967 60.6681 6.967C60.6681 6.967 61.3228 6.14976 59.5794 5.30928Z" fill="#F8CDB1" />
    <path d="M65.0669 10.2013C65.0669 10.2013 63.9527 10.7749 65.4884 12.4824C67.0245 14.1891 67.4133 12.8098 67.4133 12.8098C67.4133 12.8098 68.3293 12.3015 67.0347 10.8627C65.7403 9.42388 65.0669 10.2013 65.0669 10.2013Z" fill="#F8CDB1" />
    <path d="M54.0096 18.4819C52.0799 19.7268 53.3801 20.3302 53.3801 20.3302C53.3801 20.3302 53.7361 21.3151 55.3624 20.2662C56.9888 19.2165 56.3282 18.428 56.3282 18.428C56.3282 18.428 55.9393 17.2367 54.0096 18.4819Z" fill="#F8CDB1" />
    <path d="M64.8649 22.8019C63.4169 21.5179 62.8351 22.3661 62.8351 22.3661C62.8351 22.3661 61.7923 23.0614 63.5105 24.5846C65.2287 26.1084 65.4601 24.6939 65.4601 24.6939C65.4601 24.6939 66.3131 24.0858 64.8649 22.8019Z" fill="#F8CDB1" />
    <path d="M76.0674 15.8272C76.0674 15.8272 75.2836 14.8495 73.9165 16.6942C72.5491 18.5395 73.9787 18.6459 73.9787 18.6459C73.9787 18.6459 74.659 19.4425 75.811 17.8873C76.9635 16.3324 76.0674 15.8272 76.0674 15.8272Z" fill="#F8CDB1" />
    <path d="M79.7669 10.1113C79.7669 10.1113 78.6082 10.5892 79.9958 12.4191C81.383 14.2489 81.8865 12.9067 81.8865 12.9067C81.8865 12.9067 82.8418 12.4773 81.6724 10.9349C80.503 9.3925 79.7669 10.1113 79.7669 10.1113Z" fill="#F8CDB1" />
    <path d="M85.9077 20.4282C84.6547 18.9529 83.9594 19.7109 83.9594 19.7109C83.9594 19.7109 82.829 20.2526 84.3156 22.0027C85.8024 23.7531 86.2302 22.3849 86.2302 22.3849C86.2302 22.3849 87.1605 21.9035 85.9077 20.4282Z" fill="#F8CDB1" />
  </svg>